<?xml version="1.0" standalone="no"?>
<!DOCTYPE svg PUBLIC "-//W3C//DTD SVG 20010904//EN"
 "http://www.w3.org/TR/2001/REC-SVG-20010904/DTD/svg10.dtd">
<svg version="1.0" xmlns="http://www.w3.org/2000/svg"
 width="5500.000000pt" height="3100.000000pt" viewBox="0 0 5500.000000 3100.000000"
 preserveAspectRatio="xMidYMid meet">

<g transform="translate(0.000000,3100.000000) scale(0.100000,-0.100000)"
fill="#000000" stroke="none">
<path d="M17730 22860 l0 -530 125 0 125 0 0 303 0 302 275 -3 275 -3 0 -299
0 -300 130 0 130 0 0 385 0 384 240 3 240 3 2 -385 3 -385 68 -3 67 -3 0 111
0 110 220 0 220 0 0 -110 0 -110 120 0 120 0 0 305 0 305 110 0 110 0 0 -305
0 -305 180 0 181 0 -1 143 c-1 78 -1 193 0 255 l0 112 190 0 c174 0 190 -1
190 -17 1 -10 2 -124 3 -253 l2 -235 153 -3 152 -3 0 366 0 365 260 0 260 0 0
-212 c1 -117 1 -282 0 -365 l-1 -153 138 0 138 0 0 -107 c0 -60 1 -271 3 -470
l2 -362 123 -4 122 -3 -121 -2 -121 -2 -7 -52 c-4 -29 -4 -169 0 -310 l7 -258
128 0 129 0 0 124 c0 90 3 126 13 130 9 5 9 7 -1 12 -10 5 -10 8 2 18 13 10
14 70 8 506 l-7 495 -5 -325 -5 -325 -3 327 c-1 249 1 327 10 330 9 3 14 46
16 141 l4 137 114 0 114 0 0 305 0 305 110 0 110 0 0 -305 0 -305 70 0 70 0 0
384 0 385 133 3 132 3 -3 -387 -2 -388 109 0 110 0 3 45 3 46 252 2 c159 1
249 -1 243 -7 -6 -6 -10 -27 -10 -48 l0 -38 105 0 c92 0 104 -2 98 -16 -3 -9
0 -20 8 -25 10 -6 10 -9 2 -9 -10 0 -13 -159 -13 -760 l0 -760 180 0 180 0 -2
785 -3 785 133 0 132 0 0 530 0 530 -3550 0 -3550 0 0 -530z m6504 115 c-4 -8
-7 -15 -9 -15 -2 0 -5 7 -9 15 -3 9 0 15 9 15 9 0 12 -6 9 -15z m3 -39 c0 -8
-6 -12 -15 -9 -11 5 -11 7 0 14 7 5 13 9 14 9 0 0 1 -6 1 -14z m330 -438 c-1
-79 -3 -15 -3 142 0 157 2 221 3 143 2 -79 2 -207 0 -285z m-2147 -73 c0 -8
-4 -15 -10 -15 -5 0 -7 7 -4 15 4 8 8 15 10 15 2 0 4 -7 4 -15z m17 -17 c-3
-7 -5 -2 -5 12 0 14 2 19 5 13 2 -7 2 -19 0 -25z m1803 -75 c0 -12 -2 -12 -15
1 -8 8 -15 17 -15 20 0 3 7 3 15 0 8 -4 15 -13 15 -21z m-1812 -991 c2 -7 -1
-12 -8 -12 -6 0 -9 4 -6 9 4 5 1 12 -4 14 -6 3 -5 4 2 3 6 -1 14 -8 16 -14z"/>
<path d="M22434 20880 c0 -69 1 -97 3 -62 2 34 2 90 0 125 -2 34 -3 6 -3 -63z"/>
<path d="M17730 19790 l0 -530 125 0 125 0 0 365 0 365 260 0 260 0 0 -365 0
-365 80 0 80 0 0 250 0 250 190 0 190 0 0 -250 0 -250 80 0 80 0 0 300 0 300
110 0 110 0 0 -300 0 -300 55 0 55 0 0 300 0 300 110 0 110 0 0 -190 0 -190
225 0 226 0 -3 325 -3 325 243 0 242 0 0 -325 0 -325 220 0 220 0 0 -110 0
-110 225 0 225 0 0 45 0 45 240 0 240 0 0 -45 0 -45 115 0 115 0 0 298 0 297
272 -2 c150 -2 275 -3 278 -3 3 0 4 -133 2 -295 l-3 -295 76 0 75 0 0 385 0
385 135 0 135 0 0 -32 c0 -18 0 -192 0 -385 l0 -353 95 0 95 0 1 -112 c1 -62
3 -403 4 -758 1 -355 5 -657 10 -672 8 -31 25 -38 25 -10 1 16 1 16 11 0 8
-15 25 -18 95 -18 61 0 90 4 100 14 11 11 14 44 14 135 0 66 3 122 8 124 4 3
7 -59 6 -136 l-1 -142 9 145 c15 243 10 630 -7 630 -5 0 -3 5 5 10 12 8 15 38
15 170 0 132 -3 162 -15 170 -8 5 -10 10 -5 10 6 0 11 39 12 92 1 51 5 150 8
221 l7 127 84 0 85 0 -3 105 -3 105 163 0 162 0 0 -105 0 -104 65 -3 65 -3 3
-779 c1 -583 5 -780 14 -783 6 -2 13 4 16 14 4 17 5 17 6 1 1 -16 16 -18 161
-18 l160 0 0 785 0 785 55 0 55 0 0 530 0 530 -3550 0 -3550 0 0 -530z m5993
-471 c-4 -5 -6 49 -3 119 l5 127 3 -119 c1 -66 -1 -123 -5 -127z m657 -829
l-5 -775 -3 755 c-1 630 1 822 12 798 0 -2 -1 -352 -4 -778z m-670 431 c-3
-49 -7 -92 -10 -94 -6 -6 -1 152 5 171 9 26 10 9 5 -77z m-243 -123 c-3 -8 -6
-5 -6 6 -1 11 2 17 5 13 3 -3 4 -12 1 -19z m253 -8 c0 -5 -10 -10 -22 -9 -22
0 -22 1 -3 9 11 5 21 9 23 9 1 1 2 -3 2 -9z m0 -299 c0 -5 -9 -7 -20 -4 -11 3
-20 7 -20 9 0 2 9 4 20 4 11 0 20 -4 20 -9z m-253 -23 c-3 -8 -6 -5 -6 6 -1
11 2 17 5 13 3 -3 4 -12 1 -19z m243 -108 c3 -49 2 -86 -2 -82 -7 8 -16 183
-8 175 3 -2 7 -45 10 -93z"/>
<path d="M15670 19809 c-47 -15 -87 -45 -106 -81 -8 -16 -14 -32 -11 -34 2 -3
24 7 48 21 56 32 59 31 59 -5 0 -36 39 -80 70 -80 29 0 70 44 70 75 0 15 4 24
10 20 21 -13 9 26 -17 55 -32 34 -72 44 -123 29z"/>
<path d="M16239 19781 c-32 -18 -80 -84 -68 -95 3 -3 22 6 42 19 47 32 54 31
49 -5 -10 -71 64 -108 107 -54 12 15 21 35 21 46 0 11 5 16 10 13 21 -13 9 26
-17 55 -36 40 -93 49 -144 21z"/>
<path d="M15695 19160 c25 -70 53 -116 97 -157 53 -48 104 -67 178 -67 70 1
122 27 180 91 l45 48 -95 6 c-112 8 -235 37 -342 83 l-76 33 13 -37z m185 -57
c63 -19 136 -37 163 -40 57 -7 60 -22 12 -59 -50 -38 -117 -43 -181 -15 -56
25 -77 42 -115 95 -33 45 -38 72 -11 61 9 -5 69 -23 132 -42z"/>
<path d="M14940 18679 c-246 -52 -465 -158 -574 -279 -51 -57 -70 -104 -63
-160 l6 -46 -78 -16 c-209 -43 -355 -141 -466 -313 -65 -99 -86 -141 -140
-274 -25 -62 -73 -154 -117 -221 -234 -360 -401 -705 -528 -1095 -40 -120 -43
-140 -48 -264 -7 -198 22 -328 129 -577 63 -149 119 -235 228 -347 l88 -92 6
-105 c12 -204 73 -369 168 -454 59 -53 178 -116 283 -150 101 -33 106 -33 106
5 l0 31 37 -22 c94 -56 304 -121 466 -146 211 -33 736 -13 924 34 57 14 71 22
90 51 20 29 23 47 23 127 0 92 -1 94 -24 94 -22 0 -23 -4 -29 -87 -4 -47 -11
-89 -17 -93 -7 -4 -11 -11 -10 -16 9 -49 -733 -93 -950 -56 -161 27 -450 126
-450 154 0 5 -4 7 -9 3 -12 -7 -30 24 -25 43 1 7 0 8 -3 2 -20 -41 -51 47 -59
170 l-7 99 54 -19 c88 -30 153 -40 343 -51 100 -5 228 -14 286 -19 68 -6 109
-5 117 1 17 15 108 233 137 331 49 162 114 563 95 583 -3 3 -73 20 -156 38
l-150 33 -100 71 c-55 40 -155 123 -222 185 -117 107 -161 164 -161 207 0 11
-3 21 -8 23 -4 2 -24 28 -44 58 -20 31 -66 86 -103 124 -54 55 -71 67 -93 64
-42 -5 -30 -37 41 -110 34 -34 71 -74 82 -88 20 -25 20 -25 0 -10 -11 8 -22
17 -25 21 -14 15 -203 102 -251 114 -69 19 -221 29 -279 18 -47 -9 -62 -31
-41 -57 8 -10 24 -11 63 -4 89 15 224 -7 326 -53 56 -25 163 -87 177 -103 6
-6 19 -16 30 -23 11 -6 19 -16 17 -23 -1 -6 2 -8 8 -5 14 9 52 -24 43 -38 -3
-5 -2 -7 4 -4 13 8 86 -67 76 -78 -5 -4 -3 -5 3 -2 13 8 67 -46 57 -57 -5 -4
-1 -6 7 -4 9 2 14 -3 12 -12 -2 -8 0 -12 4 -8 9 10 80 -53 76 -66 -2 -6 -1 -8
3 -4 9 8 46 -23 39 -34 -3 -4 3 -5 12 -1 13 5 16 3 11 -10 -3 -9 -1 -19 5 -23
7 -4 8 -3 4 4 -12 21 10 13 47 -15 63 -48 82 -64 68 -57 -10 5 -12 3 -7 -5 5
-7 14 -10 22 -7 8 3 17 -1 20 -9 4 -8 12 -15 20 -15 17 0 18 4 -7 -66 -11 -32
-22 -66 -24 -74 -54 -224 -89 -349 -98 -343 -6 3 -7 1 -3 -5 9 -15 -23 -132
-36 -132 -5 0 -7 -4 -3 -9 3 -6 -13 -59 -35 -119 -22 -60 -40 -115 -40 -121 0
-43 -414 52 -474 108 -12 12 -26 21 -31 21 -5 0 0 -7 11 -15 24 -20 -81 32
-118 57 -16 11 -28 17 -28 14 0 -4 -18 6 -40 20 -22 15 -37 31 -33 37 3 6 1 7
-5 3 -7 -4 -12 -2 -12 4 0 6 -4 8 -10 5 -14 -9 -155 103 -236 187 -73 76 -151
177 -156 200 -2 7 -9 18 -16 24 -8 5 -15 22 -15 36 -1 14 -4 25 -7 23 -3 -2
-16 20 -29 48 -112 241 -156 451 -132 630 11 81 110 397 132 422 5 5 9 14 9
21 0 6 12 38 27 70 15 33 28 62 28 65 1 22 213 442 230 455 8 6 12 14 8 17 -3
4 -1 7 5 7 7 0 11 3 10 8 -4 16 33 72 44 66 6 -4 8 -3 4 4 -5 8 77 145 136
226 4 6 14 4 24 -5 16 -13 16 -12 4 7 -12 20 -9 27 36 85 27 35 55 70 61 77 7
7 16 20 21 28 5 8 16 16 25 18 9 1 20 6 24 11 4 4 2 5 -4 1 -7 -4 -13 -3 -13
2 0 14 27 34 32 25 3 -4 3 -2 2 4 -4 17 45 75 57 67 5 -3 8 -2 7 3 -4 11 54
69 65 65 5 -1 6 2 2 7 -7 12 162 147 182 145 8 -1 12 0 9 3 -8 8 66 59 122 86
26 12 50 27 54 32 5 6 8 5 8 -3 0 -7 4 -11 8 -8 11 7 94 -78 86 -87 -4 -4 1
-7 10 -7 12 0 16 -5 12 -15 -3 -8 0 -14 6 -12 23 5 133 -175 220 -360 6 -11 7
-27 3 -34 -5 -7 -4 -10 2 -6 12 8 36 -50 27 -64 -3 -5 -2 -9 3 -9 12 0 46
-117 37 -131 -4 -7 -3 -10 3 -6 10 6 36 -79 28 -93 -3 -4 -1 -10 4 -12 5 -1
11 -25 13 -53 2 -27 6 -52 10 -56 9 -6 18 -102 25 -261 l5 -108 172 0 172 0
-7 74 c-4 41 -9 138 -11 215 -1 78 -6 141 -9 141 -4 0 -10 33 -14 73 -4 39 -9
79 -10 87 -10 49 -38 207 -38 218 0 6 -5 12 -10 12 -5 0 -7 9 -4 20 3 10 0 21
-5 22 -5 2 -11 16 -11 31 -1 15 -6 27 -11 27 -4 0 -6 7 -2 15 3 8 2 15 -3 15
-8 0 -25 54 -24 77 0 7 -3 11 -7 8 -12 -7 -23 32 -14 46 5 8 3 9 -6 4 -10 -6
-12 -4 -6 11 4 10 4 15 0 11 -4 -4 -13 5 -21 20 -8 15 -23 42 -34 60 -21 33
-15 41 19 25 127 -62 167 -85 232 -133 91 -68 184 -164 174 -181 -4 -6 5 -3
19 8 35 25 34 56 -3 97 -16 19 -27 37 -25 41 3 3 2 4 -2 1 -4 -3 -18 6 -32 19
-43 40 -173 130 -218 150 -24 10 -40 23 -37 27 3 5 -3 6 -12 2 -13 -5 -15 -3
-9 7 5 8 4 11 -3 6 -9 -6 -59 11 -72 24 -3 3 -14 5 -25 6 -11 0 -65 11 -120
22 -54 12 -109 22 -122 22 -13 0 -23 3 -23 8 0 4 -18 8 -41 9 -89 5 -230 61
-268 106 -33 41 22 156 71 148 4 0 5 6 2 13 -3 9 4 19 18 26 13 7 33 21 45 32
12 12 27 17 34 13 7 -5 10 -4 6 2 -15 23 313 163 350 149 7 -3 13 -1 13 5 0 6
8 9 18 7 9 -1 22 1 28 4 6 4 36 10 67 12 66 6 99 21 95 44 -5 25 -65 25 -178
1z m-187 -3190 c90 -19 150 -38 122 -39 -5 0 -11 -28 -13 -62 -2 -61 -38 -289
-49 -318 -3 -8 -7 -24 -8 -35 -9 -60 -65 -221 -121 -344 l-25 -53 -42 5 c-23
4 -86 9 -139 13 l-97 6 15 37 c9 20 35 97 59 171 62 190 61 187 80 265 18 79
72 277 85 315 4 14 11 33 14 43 7 21 -3 21 119 -4z"/>
<path d="M14548 14869 c-23 -13 -24 -85 -3 -113 8 -11 15 -17 15 -13 0 4 13 1
30 -8 22 -12 28 -12 24 -2 -3 8 9 18 32 27 19 8 31 16 25 18 -6 2 -11 18 -11
36 0 19 -8 40 -18 49 -21 19 -68 22 -94 6z"/>
<path d="M16140 18654 c-30 -16 -39 -23 -25 -24 38 -1 187 -23 205 -30 3 -1 8
-2 11 -2 7 1 79 -22 134 -42 70 -26 122 -55 128 -70 4 -9 13 -13 21 -10 8 3
21 -5 30 -18 9 -12 16 -19 16 -15 0 17 79 -72 99 -112 34 -66 20 -100 -85
-207 -29 -30 -56 -64 -59 -74 -4 -11 -11 -17 -17 -14 -7 4 -8 2 -4 -5 4 -6 1
-22 -7 -34 -8 -12 -20 -46 -27 -74 -8 -29 -17 -53 -21 -53 -4 0 -6 -9 -4 -20
2 -11 0 -20 -5 -20 -5 0 -7 -10 -5 -22 15 -88 26 -217 36 -437 13 -279 2 -726
-26 -1041 -39 -432 -72 -1306 -61 -1622 12 -362 56 -458 219 -475 72 -7 203
20 292 61 80 37 130 88 142 143 13 63 7 580 -11 863 -9 146 -16 316 -16 378
l0 112 52 -41 c178 -140 481 -272 726 -315 88 -15 103 -20 108 -39 3 -11 4
-186 2 -388 -2 -202 1 -367 5 -367 5 0 6 -4 2 -10 -8 -13 338 -18 347 -5 4 5
5 12 2 14 -3 3 -9 -1 -14 -9 -6 -9 -10 -10 -10 -3 0 7 7 16 15 21 14 7 15 56
13 385 l-3 378 25 5 c294 63 616 323 828 672 118 193 221 442 225 545 1 35 11
67 28 97 15 25 35 63 45 85 l19 40 3 -337 2 -338 65 0 65 0 0 305 0 305 110 0
110 0 0 -305 0 -305 120 0 120 0 0 -137 c0 -76 1 -424 1 -773 0 -359 4 -626 9
-615 7 16 9 17 9 3 1 -9 -4 -20 -10 -24 -24 -15 20 -20 149 -16 l132 4 0 779
0 779 140 0 140 0 0 365 0 365 260 0 260 0 0 -365 0 -365 150 0 150 0 0 255 0
255 190 0 190 0 0 -255 0 -255 185 0 185 0 0 305 0 305 105 0 105 0 0 -305 0
-305 125 0 125 0 0 110 0 109 220 3 220 3 0 -113 0 -113 68 3 67 3 3 383 c1
258 6 382 13 382 5 0 7 6 3 13 -6 10 -4 10 7 0 9 -10 72 -13 238 -13 l226 0
-3 -385 -2 -385 130 0 130 0 0 300 0 300 275 0 275 0 0 -300 0 -300 125 0 125
0 0 530 0 530 -2649 0 -2648 0 -26 -91 c-15 -51 -29 -94 -31 -97 -3 -3 -42 29
-86 71 -96 92 -200 171 -354 267 -94 58 -118 70 -134 61 -22 -12 -71 -71 -126
-153 l-39 -58 -504 0 -503 0 0 -65 c0 -36 -3 -65 -7 -64 -17 1 -187 221 -413
534 -197 272 -276 363 -395 453 -78 59 -99 80 -97 96 15 93 13 127 -7 170 -62
128 -281 257 -511 300 -100 19 -104 19 -160 -10z m661 -545 c17 -9 18 -13 7
-27 -12 -16 -11 -16 6 -2 16 13 20 12 37 -8 10 -13 22 -23 26 -22 18 0 174
-154 169 -167 -3 -8 -2 -12 3 -9 11 7 103 -103 95 -115 -3 -5 -2 -8 3 -7 4 2
9 -1 11 -7 2 -5 11 -19 22 -30 22 -25 107 -137 151 -201 18 -27 42 -58 52 -70
11 -12 20 -26 20 -31 1 -4 15 -23 32 -41 16 -19 34 -41 39 -50 20 -36 171
-226 220 -276 28 -29 84 -81 124 -115 41 -36 69 -67 66 -73 -4 -7 -2 -8 4 -4
7 4 29 -6 49 -23 115 -93 138 -111 146 -111 5 0 6 -7 3 -16 -3 -8 -2 -12 4 -9
9 5 60 -24 108 -63 20 -16 22 -20 9 -30 -8 -7 -19 -11 -23 -10 -5 2 -10 -1
-11 -5 -1 -4 -25 -33 -53 -65 -54 -60 -110 -158 -103 -179 3 -7 15 -13 28 -13
18 0 33 15 63 63 42 65 101 128 89 94 -4 -10 -10 -43 -13 -73 -5 -42 -10 -54
-21 -50 -9 4 -11 2 -6 -7 4 -6 8 -70 8 -142 l0 -130 25 0 c23 0 25 4 27 55 5
107 25 252 44 327 27 103 99 231 121 217 7 -4 8 -2 4 4 -4 6 5 29 20 52 23 34
29 38 43 28 14 -12 14 -11 3 4 -12 15 -6 27 49 100 35 46 71 92 81 102 10 11
18 24 18 29 0 5 7 7 15 4 8 -4 17 -1 21 5 4 7 3 8 -4 4 -30 -18 -6 17 51 77
l62 66 70 -64 c39 -35 70 -68 70 -73 0 -6 4 -14 9 -19 5 -5 6 -3 2 5 -4 6 -4
12 -1 12 8 0 128 -99 137 -114 4 -6 8 -7 8 -2 0 5 9 1 20 -9 11 -10 17 -22 13
-28 -4 -6 -1 -7 6 -2 7 4 22 -1 34 -13 12 -11 63 -50 112 -87 50 -36 103 -78
119 -92 l30 -25 -18 -71 c-11 -40 -28 -92 -39 -117 -11 -25 -21 -51 -23 -58
-4 -22 -57 -126 -67 -133 -5 -3 -8 -9 -7 -13 3 -11 -103 -186 -112 -186 -4 0
-8 -5 -8 -10 0 -9 -35 -65 -50 -80 -3 -3 -25 -31 -49 -62 -24 -32 -48 -55 -54
-51 -5 3 -7 1 -4 -4 4 -6 -23 -40 -59 -77 -37 -36 -71 -63 -77 -59 -5 3 -7 1
-3 -5 3 -6 -4 -18 -16 -26 -20 -14 -24 -14 -47 0 l-26 15 23 -20 23 -20 -48
-35 c-31 -23 -55 -33 -68 -30 -15 4 -17 3 -6 -4 11 -8 -3 -19 -58 -47 -159
-79 -302 -103 -514 -85 -73 6 -133 15 -135 20 -2 5 -9 7 -16 4 -29 -11 -351
80 -341 97 4 5 0 6 -8 4 -21 -9 -261 110 -278 137 -3 5 -10 10 -15 11 -5 1 -8
5 -7 8 1 4 -5 6 -15 5 -9 0 -16 4 -15 10 1 7 -4 11 -11 10 -8 0 -39 21 -70 48
l-56 49 0 364 c0 334 2 367 18 391 23 34 57 147 71 232 18 119 25 249 12 264
-15 18 -51 9 -51 -13 0 -9 -5 -67 -10 -130 -17 -190 -29 -167 -30 55 0 177 -2
204 -17 223 -13 14 -22 18 -32 12 -12 -8 -14 -150 -15 -897 -1 -757 2 -934 17
-1189 12 -190 18 -382 15 -522 -3 -208 -4 -223 -23 -238 -11 -9 -13 -13 -5 -9
11 5 10 2 -3 -13 -47 -54 -215 -113 -322 -113 -77 0 -116 23 -149 89 -36 69
-41 143 -41 546 0 512 21 1043 55 1380 19 194 30 474 30 795 1 292 -4 410 -25
620 -12 114 44 271 128 358 45 46 49 47 78 31z m2218 -779 c54 -31 70 -45 60
-51 -10 -6 -7 -8 11 -7 19 2 25 -2 24 -15 -1 -13 2 -15 10 -8 11 9 32 -4 156
-104 44 -35 200 -196 200 -206 0 -24 -43 -108 -53 -102 -6 4 -7 1 -3 -6 9 -14
-12 -71 -25 -71 -5 0 -9 -8 -9 -17 0 -15 -2 -16 -10 -3 -5 8 -10 11 -10 7 0
-8 -114 74 -135 97 -5 6 -35 28 -65 48 -30 21 -69 50 -85 65 -17 15 -51 43
-75 62 -25 19 -81 66 -125 105 -44 38 -84 73 -89 77 -10 8 72 129 87 129 6 0
8 3 4 6 -10 10 36 54 47 45 6 -4 44 -27 85 -51z m-965 -492 c-5 -8 -2 -9 12
-4 10 4 15 4 11 0 -4 -4 -1 -14 6 -22 9 -11 4 -11 -15 2 -28 19 -37 36 -17 36
5 0 7 -5 3 -12z m293 -15 c0 -7 -4 -13 -8 -13 -4 0 -10 -8 -12 -17 -2 -10 -4
-4 -3 13 1 29 23 46 23 17z m-203 -54 c-1 -3 10 -10 27 -16 22 -8 29 -8 29 0
0 8 3 7 9 -2 6 -9 11 -10 15 -2 4 6 13 11 19 11 7 0 6 -4 -3 -10 -23 -15 -7
-20 20 -7 22 11 60 12 60 2 0 -13 -14 -35 -22 -35 -7 0 -6 5 1 14 9 10 8 15
-4 20 -9 3 -15 0 -15 -10 0 -10 -6 -14 -15 -10 -8 3 -15 0 -15 -7 0 -7 -10
-13 -22 -14 -13 0 -17 1 -10 4 21 8 13 21 -14 21 -15 0 -29 3 -33 8 -3 5 -15
14 -26 20 -11 6 -29 26 -39 45 l-20 34 31 -30 c16 -16 29 -32 27 -36z m10 36
c3 -8 1 -15 -4 -15 -6 0 -10 7 -10 15 0 8 2 15 4 15 2 0 6 -7 10 -15z m2006
-324 c0 -5 -10 -7 -22 -3 -18 4 -20 2 -16 -16 4 -12 2 -22 -3 -22 -5 0 -9 11
-9 25 0 20 5 25 25 25 14 0 25 -4 25 -9z m-25 -231 c3 -5 2 -10 -4 -10 -5 0
-13 5 -16 10 -3 6 -2 10 4 10 5 0 13 -4 16 -10z m15 -310 c0 -5 -5 -10 -11
-10 -5 0 -7 5 -4 10 3 6 8 10 11 10 2 0 4 -4 4 -10z m7 -26 c-3 -3 -12 -4 -19
-1 -8 3 -5 6 6 6 11 1 17 -2 13 -5z m-7 -694 c0 -5 -4 -10 -10 -10 -5 0 -10 5
-10 10 0 6 5 10 10 10 6 0 10 -4 10 -10z m0 -360 c0 -5 -4 -10 -10 -10 -5 0
-10 5 -10 10 0 6 5 10 10 10 6 0 10 -4 10 -10z m7 -225 c0 -8 -4 -15 -9 -15
-4 0 -8 7 -8 15 0 8 4 15 8 15 5 0 9 -7 9 -15z"/>
<path d="M17160 16701 c0 -6 4 -13 10 -16 6 -3 7 1 4 9 -7 18 -14 21 -14 7z"/>
<path d="M18909 15843 c-13 -16 -12 -17 4 -4 9 7 17 15 17 17 0 8 -8 3 -21
-13z"/>
<path d="M17878 15513 c7 -3 16 -2 19 1 4 3 -2 6 -13 5 -11 0 -14 -3 -6 -6z"/>
<path d="M16564 18465 c0 -13 3 -22 7 -19 8 4 6 30 -2 38 -3 3 -5 -5 -5 -19z"/>
<path d="M15145 18331 c-3 -5 0 -13 6 -17 7 -4 9 -3 5 4 -3 5 0 13 6 15 9 4
10 6 1 6 -6 1 -14 -3 -18 -8z"/>
<path d="M16296 18305 c-11 -8 -14 -15 -8 -15 20 0 26 4 28 18 3 15 3 15 -20
-3z"/>
<path d="M16423 18188 c-3 -6 -1 -8 5 -4 5 3 13 0 15 -6 4 -10 6 -10 6 0 1 8
6 10 14 6 6 -4 8 -3 4 1 -12 13 -36 15 -44 3z"/>
<path d="M15210 18186 c0 -3 9 -10 20 -16 11 -6 20 -8 20 -6 0 3 -9 10 -20 16
-11 6 -20 8 -20 6z"/>
<path d="M16463 18115 c0 -8 4 -12 9 -9 5 3 6 10 3 15 -9 13 -12 11 -12 -6z"/>
<path d="M14930 18069 c0 -5 5 -7 10 -4 6 3 10 8 10 11 0 2 -4 4 -10 4 -5 0
-10 -5 -10 -11z"/>
<path d="M14326 18058 c3 -5 10 -6 15 -2 5 3 18 0 27 -8 15 -12 16 -11 4 4
-13 16 -56 22 -46 6z"/>
<path d="M15286 18033 c-6 -14 -5 -15 5 -6 7 7 10 15 7 18 -3 3 -9 -2 -12 -12z"/>
<path d="M16475 18020 c-3 -5 -1 -10 4 -10 6 0 11 5 11 10 0 6 -2 10 -4 10 -3
0 -8 -4 -11 -10z"/>
<path d="M15297 17955 c-4 -10 -3 -23 3 -29 8 -8 9 -5 4 9 -7 20 -7 20 14 1
12 -10 19 -24 15 -30 -3 -6 0 -5 8 2 12 11 12 14 -1 22 -13 9 -13 10 0 10 13
0 13 2 0 9 -8 6 -17 8 -21 5 -4 -2 -9 1 -11 8 -3 7 -7 4 -11 -7z"/>
<path d="M15379 17643 c-7 -10 -9 -15 -5 -11 5 4 15 3 22 -3 9 -7 12 -6 10 5
-3 25 -12 28 -27 9z"/>
<path d="M15385 17580 c10 -11 20 -20 23 -20 3 0 -3 9 -13 20 -10 11 -20 20
-23 20 -3 0 3 -9 13 -20z"/>
<path d="M15440 17456 c0 -2 8 -10 18 -17 15 -13 16 -12 3 4 -13 16 -21 21
-21 13z"/>
<path d="M15467 17194 c-3 -5 2 -15 12 -21 14 -9 18 -8 18 3 0 7 -4 11 -8 8
-4 -2 -9 1 -11 8 -3 7 -7 8 -11 2z"/>
<path d="M15473 17137 c0 -8 6 -14 14 -14 9 0 10 4 2 14 -6 7 -12 13 -14 13
-1 0 -2 -6 -2 -13z"/>
<path d="M15486 16993 c-6 -14 -5 -15 5 -6 7 7 10 15 7 18 -3 3 -9 -2 -12 -12z"/>
<path d="M31264 16812 c3 -5 -5 -7 -19 -5 -35 7 -117 -23 -167 -61 -37 -28
-54 -34 -118 -39 -41 -3 -95 -13 -120 -22 -178 -63 -325 -238 -386 -460 -24
-85 -35 -216 -21 -234 8 -10 8 -13 0 -8 -8 5 -10 -5 -7 -35 10 -87 26 -168 34
-163 5 3 6 -3 3 -13 -2 -10 9 -53 25 -97 l28 -79 -53 -69 c-107 -139 -120
-295 -38 -456 15 -30 49 -78 76 -106 50 -53 141 -111 158 -101 5 4 11 2 13 -4
5 -16 118 -32 178 -25 77 9 140 38 135 62 -2 10 -9 60 -16 111 -6 50 -15 92
-19 92 -4 0 -7 8 -7 18 1 66 -1 69 -46 74 -55 6 -111 33 -150 72 -40 39 -71
78 -77 97 -8 25 -8 169 0 164 4 -3 13 2 20 10 19 23 90 18 153 -10 30 -14 58
-32 61 -40 9 -25 54 -18 72 11 14 21 16 44 12 147 -3 67 -3 132 1 143 3 12 78
83 166 158 88 76 159 142 157 147 -1 6 1 8 6 5 11 -6 195 175 243 239 26 34
41 44 62 45 130 1 288 -114 364 -264 14 -28 30 -54 35 -57 5 -3 9 -9 9 -13 -5
-32 -1 -38 17 -25 15 13 16 12 3 -3 -11 -15 -11 -25 3 -65 21 -60 20 -66 -4
-53 -11 6 -26 8 -32 4 -6 -4 -8 -3 -5 3 4 6 -4 15 -17 21 -65 29 -158 26 -175
-6 -19 -36 -7 -41 206 -86 7 -1 16 -5 19 -9 4 -4 16 -7 26 -7 15 0 18 7 17 38
0 20 9 64 22 97 34 91 33 242 -4 348 -38 110 -135 256 -159 241 -7 -4 -8 -2
-4 4 10 17 -112 112 -211 164 -98 51 -188 82 -278 97 -78 12 -198 14 -191 3z"/>
<path d="M9832 16473 c-34 -16 -54 -46 -66 -95 -8 -35 -2 -35 41 2 43 38 50
38 45 -3 -8 -72 75 -91 99 -22 10 26 18 34 29 29 8 -3 20 -8 26 -10 11 -5 64
32 64 46 0 4 -8 6 -19 3 -11 -3 -36 9 -66 31 -53 41 -98 46 -153 19z"/>
<path d="M9231 16465 c-18 -9 -56 -38 -82 -66 -29 -29 -55 -47 -62 -44 -6 4
-1 -3 12 -14 33 -30 52 -26 107 19 27 22 52 40 56 40 5 0 8 -18 8 -40 0 -31 5
-43 26 -56 24 -16 27 -16 52 3 15 11 31 34 36 52 7 24 13 30 28 26 30 -10 21
14 -21 56 -33 34 -45 39 -82 39 -24 -1 -59 -7 -78 -15z"/>
<path d="M46255 16053 c-522 -34 -944 -174 -1150 -381 -174 -174 -173 -371 2
-503 215 -163 734 -228 1813 -229 727 0 1075 60 1232 213 58 56 81 107 86 189
5 85 -12 139 -74 225 -183 257 -671 437 -1309 483 -128 9 -480 11 -600 3z"/>
<path d="M31310 15896 c-115 -43 -197 -106 -218 -165 -9 -26 -8 -33 3 -37 18
-7 76 27 68 39 -3 6 -1 7 4 4 6 -4 37 8 70 26 32 18 90 42 128 55 91 28 114
44 99 69 -14 23 -103 28 -154 9z"/>
<path d="M31915 15748 c-56 -16 -95 -63 -95 -116 l0 -33 37 38 37 38 8 -42
c11 -54 38 -72 74 -48 14 9 27 29 30 44 5 25 10 28 41 27 27 -1 39 5 52 24 15
23 15 24 -3 17 -13 -5 -31 1 -56 18 -48 33 -88 44 -125 33z"/>
<path d="M31279 15662 c-24 -16 -56 -47 -72 -70 -15 -23 -35 -42 -45 -42 -15
-1 -15 -2 2 -15 32 -24 52 -18 108 32 l52 46 8 -38 c10 -48 24 -65 53 -65 28
0 53 28 61 69 5 25 11 32 25 28 29 -8 22 12 -17 49 -48 45 -109 47 -175 6z"/>
<path d="M37954 15295 c-4 -8 -10 -12 -15 -9 -5 3 -6 -2 -2 -12 5 -15 7 -14
16 2 6 11 15 22 21 26 7 5 7 8 -2 8 -7 0 -15 -7 -18 -15z"/>
<path d="M39355 15262 c-11 -2 -37 -17 -59 -32 -21 -16 -44 -26 -52 -23 -22 8
-16 -14 7 -31 15 -10 28 -12 44 -6 20 7 24 5 29 -15 18 -73 83 -72 95 1 l7 39
33 -33 c18 -18 36 -30 39 -28 11 12 -20 87 -42 101 -31 20 -76 32 -101 27z"/>
<path d="M37946 15218 c3 -5 10 -6 15 -3 13 9 11 12 -6 12 -8 0 -12 -4 -9 -9z"/>
<path d="M39842 15204 c-12 -8 -29 -29 -38 -45 -15 -29 -15 -30 5 -20 17 10
20 7 26 -19 8 -39 30 -60 60 -60 28 0 37 12 44 59 l6 34 49 -42 c40 -34 54
-41 75 -36 31 8 52 25 30 25 -8 0 -31 20 -51 44 -20 23 -52 50 -71 60 -44 20
-106 21 -135 0z"/>
<path d="M8400 15176 c-125 -35 -352 -153 -507 -263 -458 -324 -753 -805 -839
-1368 -24 -161 -22 -444 4 -595 43 -242 132 -408 270 -503 l39 -28 6 -177 c8
-208 48 -541 77 -632 32 -102 41 -110 141 -117 154 -11 338 43 518 151 189
114 429 305 645 516 167 163 181 176 281 265 44 39 100 89 125 113 25 23 55
48 66 56 23 17 17 25 -22 32 -16 2 -40 7 -54 11 -14 3 -29 5 -34 4 -15 -4
-320 42 -329 49 -6 5 28 54 98 139 24 29 118 133 195 216 74 79 140 158 140
167 0 5 -12 8 -28 8 -22 0 -44 -19 -115 -99 -49 -55 -96 -106 -105 -113 -14
-11 -15 -10 -8 7 5 11 15 40 22 65 l14 44 -38 -37 c-30 -29 -46 -37 -74 -37
-53 0 -113 50 -156 129 -30 54 -36 77 -40 141 -5 80 8 141 35 172 9 9 36 20
62 24 85 13 136 41 316 174 50 37 110 79 135 93 60 34 157 57 250 57 l75 0
118 135 119 135 196 0 c178 0 305 -8 431 -26 42 -6 43 -6 36 17 -12 42 -160
341 -204 413 -66 108 -196 268 -310 382 -58 57 -109 104 -113 104 -5 0 -26 11
-46 25 -20 14 -42 25 -48 25 -6 0 -27 -26 -47 -58 -35 -57 -177 -202 -197
-202 -5 0 -15 8 -21 19 -11 17 -15 17 -58 4 -56 -17 -168 -21 -278 -10 l-82 8
-16 -30 -16 -31 -52 26 c-141 72 -314 218 -409 345 -47 64 -53 69 -87 68 -20
0 -56 -6 -81 -13z"/>
<path d="M17737 14163 c-4 -3 -7 -242 -7 -529 l0 -523 90 -3 91 -3 -1 -766 c0
-422 3 -774 6 -783 5 -14 29 -16 175 -16 l169 0 0 777 c0 618 2 778 12 785 7
4 41 8 76 8 l62 0 0 105 0 105 160 0 160 0 0 -105 0 -105 220 0 220 0 0 385 0
385 135 0 135 0 0 -385 0 -385 120 0 120 0 0 293 c0 162 2 296 4 298 2 2 126
3 275 1 l271 -3 0 -294 0 -295 180 0 180 0 0 45 0 45 240 0 240 0 0 -45 0 -45
143 0 142 0 -3 -762 c-1 -420 0 -773 3 -785 5 -22 9 -23 126 -23 91 0 124 3
135 14 12 12 14 129 14 775 0 704 -1 761 -17 761 -16 0 -10 14 8 16 5 1 83 2
174 3 l165 1 0 435 0 435 240 0 240 0 0 -435 0 -435 225 0 225 0 0 300 0 300
110 0 110 0 0 -300 0 -300 55 0 55 0 0 300 0 300 110 0 110 0 0 -300 0 -300
75 0 75 0 0 250 0 249 193 3 192 3 -3 -252 -3 -253 86 0 85 0 0 40 0 40 260 0
260 0 0 -40 0 -40 85 0 85 0 -2 528 -3 527 -3541 3 c-1947 1 -3544 -1 -3547
-5z m180 -415 c-3 -8 -6 -5 -6 6 -1 11 2 17 5 13 3 -3 4 -12 1 -19z m363 -3
c0 -19 -4 -23 -17 -18 -11 4 -12 8 -5 11 7 2 12 8 12 14 0 6 -7 8 -15 4 -8 -3
-15 -1 -15 4 0 6 9 10 20 10 15 0 20 -7 20 -25z m3203 -342 l-122 -4 -4 -122
-3 -122 -2 128 -2 127 128 -2 127 -2 -122 -3z m124 -265 c-3 -8 -6 -5 -6 6 -1
11 2 17 5 13 3 -3 4 -12 1 -19z"/>
<path d="M11230 13997 l-455 -101 -468 33 c-258 18 -473 29 -477 25 -5 -5 -72
-79 -149 -164 l-140 -155 31 -9 c27 -9 33 -6 65 27 19 20 31 37 27 37 -5 0 7
16 26 35 18 19 37 32 42 29 5 -3 7 -1 6 5 -2 5 26 42 60 80 58 65 67 71 103
71 21 0 39 -3 39 -7 0 -5 32 -7 70 -6 39 1 69 -1 66 -5 -2 -4 46 -8 107 -9 61
-2 204 -10 317 -19 113 -9 213 -16 223 -16 21 1 19 -2 -46 -88 -53 -70 -65
-84 -52 -60 5 8 4 12 0 7 -5 -4 -10 -13 -11 -20 -1 -10 16 -8 70 6 105 27 260
20 338 -15 l57 -26 73 25 c46 16 106 28 165 32 l92 6 156 173 c86 94 160 172
166 172 5 0 9 9 9 20 0 15 -6 20 -27 19 -16 0 -233 -46 -483 -102z"/>
<path d="M38695 13761 c-3 -5 -2 -12 3 -15 5 -3 9 1 9 9 0 17 -3 19 -12 6z"/>
<path d="M38720 13759 c0 -5 5 -7 10 -4 6 3 10 8 10 11 0 2 -4 4 -10 4 -5 0
-10 -5 -10 -11z"/>
<path d="M10576 13702 c-3 -5 1 -9 9 -9 8 0 12 4 9 9 -3 4 -7 8 -9 8 -2 0 -6
-4 -9 -8z"/>
<path d="M38612 13697 c10 -8 14 -18 10 -22 -4 -5 -1 -5 6 -1 17 10 15 14 -10
26 -21 10 -21 10 -6 -3z"/>
<path d="M10540 13686 c0 -2 7 -7 16 -10 8 -3 12 -2 9 4 -6 10 -25 14 -25 6z"/>
<path d="M38580 13662 c9 -19 30 -23 30 -5 0 4 -3 3 -7 0 -3 -4 -12 1 -20 11
-13 15 -13 15 -3 -6z"/>
<path d="M10404 13629 c-2 -4 0 -10 6 -14 6 -4 8 -10 5 -15 -3 -5 -1 -11 4
-14 5 -4 8 2 6 11 -1 10 1 23 6 29 5 7 3 11 -7 11 -8 0 -17 -4 -20 -8z"/>
<path d="M9965 13531 c-3 -6 -13 -7 -23 -4 -9 3 -14 3 -11 -1 10 -11 48 -15
54 -6 3 5 1 11 -4 14 -5 4 -12 2 -16 -3z"/>
<path d="M10287 13519 c7 -7 15 -10 18 -7 3 3 -2 9 -12 12 -14 6 -15 5 -6 -5z"/>
<path d="M10236 13468 c3 -5 10 -6 15 -3 13 9 11 12 -6 12 -8 0 -12 -4 -9 -9z"/>
<path d="M9935 13389 c-4 -6 -14 -8 -24 -4 -13 5 -14 4 -3 -6 10 -11 15 -10
29 4 10 9 14 17 11 17 -4 0 -10 -5 -13 -11z"/>
<path d="M10020 13340 c-8 -5 -10 -10 -5 -10 6 0 17 5 25 10 8 5 11 10 5 10
-5 0 -17 -5 -25 -10z"/>
<path d="M9967 13277 c-3 -8 1 -14 8 -14 7 0 11 6 8 14 -3 7 -6 13 -8 13 -2 0
-5 -6 -8 -13z"/>
<path d="M38318 13283 c6 -2 9 -10 6 -15 -4 -7 -2 -8 5 -4 13 9 5 26 -12 25
-9 0 -8 -2 1 -6z"/>
<path d="M9922 13271 c-11 -7 -11 -9 0 -14 9 -3 15 1 15 9 0 8 -1 14 -1 14 -1
0 -7 -4 -14 -9z"/>
<path d="M9769 13223 c-13 -16 -12 -17 4 -4 9 7 17 15 17 17 0 8 -8 3 -21 -13z"/>
<path d="M9856 13232 c-3 -5 1 -15 8 -21 11 -10 14 -9 12 3 -3 21 -13 29 -20
18z"/>
<path d="M9896 13222 c-3 -5 1 -9 9 -9 8 0 12 4 9 9 -3 4 -7 8 -9 8 -2 0 -6
-4 -9 -8z"/>
<path d="M9836 13188 c3 -5 10 -6 15 -3 13 9 11 12 -6 12 -8 0 -12 -4 -9 -9z"/>
<path d="M9213 13175 c0 -8 4 -12 9 -9 5 3 6 10 3 15 -9 13 -12 11 -12 -6z"/>
<path d="M9386 13178 c3 -5 10 -6 15 -3 13 9 11 12 -6 12 -8 0 -12 -4 -9 -9z"/>
<path d="M9527 13179 c7 -7 15 -10 18 -7 3 3 -2 9 -12 12 -14 6 -15 5 -6 -5z"/>
<path d="M9819 13133 c-13 -16 -12 -17 4 -4 9 7 17 15 17 17 0 8 -8 3 -21 -13z"/>
<path d="M37875 13110 c-6 -9 -4 -11 5 -5 10 6 12 4 7 -9 -4 -9 -3 -15 2 -11
5 3 12 -1 14 -7 3 -7 6 -8 6 -2 1 5 -5 18 -12 29 -11 14 -16 15 -22 5z"/>
<path d="M18268 12593 c1 -274 3 -622 5 -773 1 -151 3 73 5 498 1 424 -1 772
-5 772 -5 0 -7 -224 -5 -497z"/>
<path d="M37910 13001 c5 -11 15 -23 21 -27 6 -3 3 5 -6 20 -20 30 -30 35 -15
7z"/>
<path d="M9560 12949 c0 -5 5 -7 10 -4 6 3 10 8 10 11 0 2 -4 4 -10 4 -5 0
-10 -5 -10 -11z"/>
<path d="M9579 12933 c-13 -17 -13 -17 6 -3 11 8 22 16 24 17 2 2 0 3 -6 3 -6
0 -17 -8 -24 -17z"/>
<path d="M9504 12896 c1 -8 5 -18 8 -22 4 -3 5 1 4 10 -1 8 -5 18 -8 22 -4 3
-5 -1 -4 -10z"/>
<path d="M9456 12849 c3 -5 9 -7 14 -4 4 3 11 0 13 -5 3 -6 4 -5 3 1 -1 7 -10
13 -19 15 -9 1 -15 -2 -11 -7z"/>
<path d="M9289 12757 c-8 -17 -4 -39 9 -49 15 -11 15 -11 4 3 -10 13 -10 18 1
28 8 6 16 10 18 8 2 -1 3 0 1 2 -2 5 -31 11 -33 8z"/>
<path d="M9358 12743 c6 -2 9 -10 6 -15 -4 -7 -2 -8 5 -4 13 9 5 26 -12 25 -9
0 -8 -2 1 -6z"/>
<path d="M9200 12676 c0 -2 8 -10 18 -17 15 -13 16 -12 3 4 -13 16 -21 21 -21
13z"/>
<path d="M26711 12349 c-178 -35 -342 -143 -443 -292 -98 -145 -179 -377 -194
-558 l-7 -80 54 8 c30 4 70 8 89 8 34 0 35 1 38 45 3 65 30 190 57 270 81 238
227 382 430 425 84 18 127 19 197 4 86 -18 158 -59 229 -129 73 -73 125 -155
175 -277 37 -94 88 -286 82 -311 -4 -15 7 -17 89 -20 109 -3 105 -11 73 130
-93 423 -311 707 -592 773 -68 16 -206 18 -277 4z"/>
<path d="M38813 11921 c0 -11 5 -18 9 -15 4 3 5 11 1 19 -7 21 -12 19 -10 -4z"/>
<path d="M37961 11507 c-8 -10 -7 -14 2 -14 8 0 14 6 14 14 0 7 -1 13 -2 13
-2 0 -8 -6 -14 -13z"/>
<path d="M26433 11436 c-1 -12 1 -15 4 -7 5 11 7 11 14 0 6 -10 8 -8 7 7 -2
27 -24 27 -25 0z"/>
<path d="M27125 11450 c-8 -13 9 -20 24 -11 10 6 9 10 -3 14 -8 3 -18 2 -21
-3z"/>
<path d="M26290 11440 c-9 -6 -10 -10 -3 -10 6 0 15 5 18 10 8 12 4 12 -15 0z"/>
<path d="M26375 11440 c-3 -5 -2 -10 4 -10 5 0 13 5 16 10 3 6 2 10 -4 10 -5
0 -13 -4 -16 -10z"/>
<path d="M26700 11440 c-12 -7 -10 -9 7 -7 12 0 19 5 17 9 -6 10 -6 10 -24 -2z"/>
<path d="M27168 11423 c6 -2 9 -10 6 -15 -4 -7 -2 -8 5 -4 13 9 5 26 -12 25
-9 0 -8 -2 1 -6z"/>
<path d="M26046 11412 c-3 -5 1 -9 9 -9 8 0 12 4 9 9 -3 4 -7 8 -9 8 -2 0 -6
-4 -9 -8z"/>
<path d="M27385 11411 c-3 -5 -2 -12 3 -15 5 -3 9 1 9 9 0 17 -3 19 -12 6z"/>
<path d="M27740 11402 c0 -6 4 -13 9 -17 12 -7 44 -115 37 -123 -3 -3 -2 -10
4 -16 26 -33 118 -497 155 -789 17 -133 19 -181 7 -173 -5 3 -9 -1 -9 -8 0
-12 9 -11 50 1 94 28 88 7 57 189 -79 461 -208 881 -287 932 -14 9 -23 10 -23
4z"/>
<path d="M25966 11388 c3 -5 10 -6 15 -3 13 9 11 12 -6 12 -8 0 -12 -4 -9 -9z"/>
<path d="M27238 11393 c-3 -4 -4 -19 -4 -33 l1 -25 140 -8 c77 -4 151 -5 165
-2 l25 7 -22 18 c-18 14 -49 19 -150 25 -71 4 -133 12 -140 17 -6 5 -13 5 -15
1z"/>
<path d="M25935 11380 c-3 -5 -3 -10 2 -10 4 0 2 -4 -5 -9 -11 -7 -11 -9 2
-14 9 -4 15 -1 13 6 -1 7 4 11 12 9 12 -3 12 0 1 12 -15 19 -17 19 -25 6z"/>
<path d="M26630 11377 c0 -5 -54 -7 -119 -5 -66 2 -118 1 -116 -2 2 -3 -69
-11 -158 -18 -190 -14 -207 -18 -207 -43 0 -24 18 -24 235 -4 88 8 297 18 463
22 248 5 305 9 309 20 3 8 1 19 -4 24 -11 11 -403 17 -403 6z"/>
<path d="M25872 11343 c-125 -177 -282 -927 -282 -1345 0 -133 9 -185 33 -200
7 -4 141 -8 300 -8 l287 0 0 40 0 40 58 1 c42 1 29 4 -48 10 -278 23 -445 59
-474 104 -36 55 -30 301 15 635 11 80 23 164 26 188 4 30 10 42 22 42 13 0 13
2 2 9 -12 7 -8 39 23 191 25 129 41 187 54 197 9 8 11 12 5 8 -16 -8 -16 1 2
50 25 70 13 89 -23 38z"/>
<path d="M26078 11358 c5 -5 16 -8 23 -6 8 3 3 7 -10 11 -17 4 -21 3 -13 -5z"/>
<path d="M38629 11358 c-1 -1 -3 -14 -4 -28 -2 -14 -6 -43 -10 -65 -4 -22 -7
-50 -7 -62 0 -13 -5 -20 -10 -17 -6 4 -7 -2 -3 -16 5 -17 4 -21 -6 -15 -8 5
-11 5 -7 1 4 -5 -5 -19 -20 -33 -15 -13 -21 -21 -13 -17 10 5 13 3 9 -8 -4 -8
-1 -15 6 -15 8 0 11 10 8 25 -3 17 -1 23 7 18 6 -4 9 -13 5 -19 -3 -7 6 1 20
16 27 29 33 47 16 47 -6 0 -6 9 -1 23 5 12 13 21 18 20 5 -1 10 7 10 18 2 18
0 19 -15 7 -16 -12 -16 -11 0 7 27 33 33 71 11 85 -17 11 -17 11 0 6 12 -4 17
-2 15 6 -4 11 -26 24 -29 16z m-19 -219 c-7 -11 -14 -18 -17 -15 -3 3 0 12 7
21 18 21 23 19 10 -6z"/>
<path d="M25923 11325 c0 -8 4 -12 9 -9 5 3 6 10 3 15 -9 13 -12 11 -12 -6z"/>
<path d="M36797 11094 c-4 -4 -21 -8 -39 -9 -49 -4 -50 -4 -44 -14 3 -5 -3
-11 -14 -14 -21 -5 -28 7 -10 16 6 3 5 4 -2 3 -7 -1 -15 -13 -19 -27 -7 -24
-7 -24 -8 -1 -1 18 -4 21 -18 14 -10 -5 -25 -7 -33 -4 -16 5 -15 4 14 -18 13
-10 17 -10 12 -2 -4 7 -2 12 5 12 6 0 9 -8 6 -20 -4 -17 0 -20 31 -19 31 0 34
2 17 10 -17 7 -17 8 -2 6 10 -1 19 -6 20 -12 1 -6 -26 -11 -63 -12 -40 -1 -59
1 -50 7 8 5 19 6 25 4 5 -3 -1 4 -14 15 -16 15 -27 18 -36 11 -6 -5 -16 -6
-20 -2 -5 4 -5 2 -2 -4 4 -6 17 -10 29 -9 13 1 15 0 6 -2 -10 -2 -18 -9 -18
-15 0 -6 -8 -4 -18 5 -17 16 -20 15 -42 -8 -12 -13 -28 -23 -34 -22 -6 1 -11
-6 -11 -15 0 -19 -12 -33 -28 -33 -7 0 -13 -4 -14 -8 0 -5 -14 -22 -29 -38
-15 -16 -24 -29 -18 -29 5 0 4 -4 -2 -8 -14 -8 -47 -85 -34 -77 5 3 16 -7 24
-22 8 -15 15 -22 16 -15 0 7 5 10 10 7 6 -4 -2 -18 -17 -34 -16 -16 -32 -26
-37 -24 -4 3 -2 9 5 14 12 7 11 9 0 9 -11 0 -9 4 5 14 14 11 16 18 8 26 -12
12 -25 1 -32 -30 -9 -37 -8 -196 2 -209 6 -8 10 -16 9 -18 -2 -1 -3 -12 -3
-23 l0 -21 22 21 c12 11 29 20 37 19 14 0 14 -1 1 -6 -17 -7 -45 -33 -35 -33
3 0 14 4 24 9 14 8 17 6 16 -7 0 -10 -4 -23 -9 -30 -4 -6 -3 -12 2 -12 5 0 9
-10 8 -22 -1 -13 3 -27 9 -31 6 -5 5 -7 -4 -5 -8 2 -15 14 -16 26 -1 12 -10
29 -21 37 -19 15 -19 15 0 8 13 -4 17 -3 12 5 -8 14 -36 16 -36 3 0 -5 7 -14
15 -21 8 -7 12 -17 8 -23 -4 -6 -1 -7 7 -2 9 5 10 2 5 -14 -4 -13 -2 -21 5
-21 6 0 9 -4 5 -9 -3 -6 2 -14 11 -19 9 -5 15 -12 15 -16 -3 -18 53 -88 63
-79 3 4 6 -3 6 -15 0 -17 5 -20 26 -16 14 3 32 0 40 -7 18 -14 19 -43 2 -33
-8 5 -7 0 2 -12 22 -29 60 -64 60 -56 0 4 5 0 11 -8 8 -12 9 -11 7 5 -2 11 -7
23 -13 27 -6 5 -5 8 2 8 15 0 36 -37 28 -50 -6 -10 36 -42 51 -39 20 3 34 -2
34 -12 0 -8 -6 -7 -17 2 -16 12 -16 11 0 -8 11 -13 25 -19 35 -16 10 4 13 2 8
-5 -5 -8 -1 -10 10 -5 13 5 15 3 9 -7 -5 -9 -4 -11 4 -6 6 4 14 0 17 -8 3 -9
10 -13 15 -10 5 3 9 1 9 -4 0 -16 33 -24 42 -10 5 9 8 7 8 -6 0 -19 0 -19 14
-1 14 19 71 31 59 12 -3 -5 1 -13 8 -18 10 -6 6 -8 -11 -7 -14 1 -31 6 -37 11
-9 7 -13 4 -13 -8 0 -10 3 -15 7 -12 3 4 17 0 31 -9 18 -12 23 -12 17 -3 -3 8
0 6 8 -3 8 -10 21 -18 29 -18 8 0 19 -5 25 -11 8 -8 13 -8 17 0 4 6 13 11 19
11 7 0 6 -4 -3 -10 -13 -8 -12 -10 5 -11 11 -1 26 -1 34 0 7 2 11 -2 7 -7 -3
-5 0 -9 7 -10 7 0 23 -3 37 -7 14 -3 32 -8 40 -10 8 -2 15 -4 15 -5 0 -1 8 -3
18 -5 12 -2 17 3 18 18 1 20 1 20 8 -2 4 -14 12 -26 19 -27 7 -1 8 0 2 3 -18
9 -11 21 10 16 11 -3 17 -9 14 -14 -3 -5 8 -9 25 -9 16 0 33 -4 36 -10 3 -5
12 -10 18 -10 7 0 6 4 -3 10 -13 8 -13 10 2 10 9 0 20 -5 24 -11 4 -8 9 -7 15
2 6 11 9 10 15 -4 5 -15 9 -15 22 -5 13 10 14 10 8 0 -6 -10 85 -12 460 -12
407 1 464 3 448 15 -10 8 -14 15 -9 15 6 0 3 5 -5 11 -13 9 -13 10 0 6 8 -2
14 -10 12 -16 -1 -7 2 -10 7 -6 12 7 3 35 -11 35 -6 0 -8 6 -5 14 3 8 3 17 -1
20 -3 4 -7 12 -8 19 -6 42 -26 97 -33 92 -10 -5 -25 25 -16 33 3 3 5 -1 5 -8
0 -7 2 -11 5 -9 8 9 -15 79 -27 79 -5 0 -8 6 -5 14 3 8 3 17 -1 20 -3 4 -7 12
-8 19 -6 42 -26 97 -33 92 -10 -5 -25 25 -16 33 3 3 5 -1 5 -8 0 -7 2 -11 5
-9 8 9 -15 79 -27 79 -5 0 -8 6 -5 14 3 8 3 17 -1 21 -4 4 -7 10 -7 13 -5 69
-37 121 -61 101 -10 -8 -14 -8 -14 0 0 6 5 11 10 11 6 0 10 8 10 18 0 14 2 15
10 2 5 -8 10 -10 10 -4 0 6 -3 14 -7 18 -8 8 -9 13 -12 44 -1 15 -3 15 -11 2
-6 -9 -10 -10 -10 -3 0 6 -3 20 -6 30 -5 15 -4 15 5 3 6 -8 11 -10 11 -4 0 6
-7 17 -15 24 -8 7 -15 18 -15 24 0 6 5 4 11 -4 8 -11 9 -9 3 10 -4 14 -11 28
-16 31 -5 3 -6 13 -3 22 4 10 -1 20 -14 27 -12 6 -21 7 -21 1 0 -5 5 -12 10
-14 6 -3 5 -4 -2 -3 -8 2 -12 14 -10 30 3 26 -12 36 -21 14 -4 -10 -6 -10 -6
-1 -1 6 4 15 9 18 8 5 8 11 0 20 -8 10 -6 15 9 20 12 3 21 11 21 16 0 6 -4 7
-10 4 -6 -3 -7 1 -4 10 5 11 2 16 -7 15 -58 -8 -79 15 -34 37 21 9 25 9 25 -4
0 -8 -4 -12 -8 -9 -4 2 -14 1 -21 -3 -7 -5 0 -8 19 -9 27 -1 30 2 24 21 -11
36 -23 43 -40 21 -8 -10 -12 -13 -8 -5 5 10 3 12 -6 6 -10 -6 -12 -4 -7 7 4
11 0 15 -11 13 -9 -1 -36 3 -59 10 -24 7 -43 9 -43 5 0 -10 -79 -5 -88 6 -4 4
1 4 10 1 10 -3 20 -1 24 5 4 7 3 8 -4 4 -7 -4 -12 -2 -12 4 0 6 -4 9 -9 6 -5
-3 -25 1 -44 9 -30 12 -36 12 -41 0 -3 -8 0 -13 7 -11 7 1 9 1 4 -1 -4 -3 -5
-9 -1 -14 3 -5 11 -6 17 -2 18 11 37 12 37 2 0 -5 -4 -10 -10 -10 -5 -1 -16
-2 -22 -3 -7 -1 -22 5 -32 13 -18 15 -19 15 -13 -2 5 -14 1 -17 -23 -15 -33 2
-36 7 -17 28 10 12 9 12 -5 1 -18 -14 -22 -10 -19 22 2 18 -8 24 -46 30 -12 2
-26 6 -29 10 -10 10 -36 9 -30 -1 2 -4 -5 -9 -17 -9 -15 -2 -18 0 -9 6 11 6
10 10 -4 15 -10 4 -21 1 -25 -6 -4 -6 -21 -13 -38 -14 -29 -2 -37 7 -32 39 2
10 -17 9 -24 -2 -3 -5 -1 -12 5 -16 19 -12 10 -25 -15 -23 -14 1 -25 6 -25 11
0 5 10 6 23 2 21 -6 21 -5 4 9 -10 8 -18 17 -18 20 2 15 0 16 -19 6 -14 -8
-20 -8 -20 0 0 6 -5 8 -10 5 -8 -5 -7 -11 1 -21 13 -16 33 -19 24 -4 -3 6 -1
10 4 10 26 0 4 -34 -24 -38 -16 -2 -17 -1 -5 7 13 10 8 15 -12 12 -4 0 -5 12
-3 27 4 26 4 26 -10 -4 -15 -33 -45 -54 -41 -29 1 8 6 18 11 22 4 4 5 2 1 -4
-4 -7 -3 -13 2 -13 13 0 22 39 11 46 -5 3 -9 1 -9 -4 0 -6 -6 -12 -13 -15 -8
-3 -14 1 -14 9 0 7 5 10 11 7 8 -4 8 -2 0 6 -6 7 -48 13 -100 15 -49 2 -89 5
-89 6 0 1 -8 3 -18 5 -9 2 -15 0 -12 -5 6 -10 -21 -7 -31 3 -9 9 -158 9 -167
1z m-252 -95 c-4 -5 -13 -9 -21 -9 -8 0 -14 -5 -14 -11 0 -5 5 -7 11 -3 7 4
10 1 7 -6 -2 -8 -10 -16 -18 -18 -7 -3 -10 0 -6 7 4 6 3 11 -1 11 -5 0 -13
-10 -18 -22 -6 -13 -20 -27 -32 -33 -13 -5 -23 -13 -23 -18 0 -4 5 -5 11 -1 7
4 10 1 7 -6 -2 -8 -10 -16 -18 -18 -7 -3 -10 0 -6 7 4 6 2 11 -3 11 -6 0 -11
-7 -11 -15 0 -8 -8 -15 -17 -15 -13 0 -11 6 10 28 15 16 24 32 20 37 -5 4 -2
5 5 1 17 -10 55 23 47 41 -2 8 -1 12 4 9 4 -3 18 6 31 19 21 22 48 26 35 4z
m-5 -54 c-7 -8 -16 -15 -21 -15 -5 0 -1 8 9 18 20 22 31 19 12 -3z m1415 -53
c3 -8 1 -20 -5 -27 -5 -6 -7 -15 -3 -19 4 -4 0 -4 -8 -1 -14 5 -23 35 -10 33
20 -2 22 4 7 15 -16 12 -16 14 -3 14 9 0 19 -7 22 -15z m-1495 -27 c-7 -8 -16
-15 -21 -15 -5 0 -1 8 9 18 20 22 31 19 12 -3z m-64 -67 c2 -27 0 -38 -5 -29
-5 8 -7 21 -4 30 3 12 2 12 -7 -2 -6 -9 -8 -23 -4 -30 4 -6 -1 -4 -11 5 -15
14 -16 20 -5 32 7 9 9 16 5 16 -4 0 -2 7 5 15 17 21 22 13 26 -37z m-31 -288
c3 -6 -1 -7 -9 -4 -18 7 -21 14 -7 14 6 0 13 -4 16 -10z m220 -8 c-3 -3 -11 0
-18 7 -9 10 -8 11 6 5 10 -3 15 -9 12 -12z m-235 -12 c0 -5 -2 -10 -4 -10 -3
0 -8 5 -11 10 -3 6 -1 10 4 10 6 0 11 -4 11 -10z m175 -35 c9 -40 -3 -27 -15
15 -5 19 -6 29 -1 24 5 -5 12 -22 16 -39z m-31 -5 c-5 -5 -10 3 -11 18 -1 22
0 24 9 8 6 -10 6 -22 2 -26z m101 30 c3 -5 1 -10 -4 -10 -6 0 -11 5 -11 10 0
6 2 10 4 10 3 0 8 -4 11 -10z m1521 -46 c-9 -8 -16 -23 -17 -32 0 -10 -3 -12
-5 -5 -7 15 13 53 27 53 6 0 3 -7 -5 -16z m-1461 -16 c-9 -6 -19 -7 -22 -4 -4
3 -1 6 6 6 7 0 9 4 6 10 -4 6 1 7 11 3 15 -6 15 -7 -1 -15z m-152 -18 c3 -13
1 -18 -6 -13 -7 4 -8 0 -3 -13 4 -10 3 -15 -1 -10 -9 9 -11 66 -2 60 4 -2 9
-13 12 -24z m38 10 c-12 -7 -12 -11 -2 -24 8 -9 19 -16 25 -16 6 0 4 4 -4 10
-8 5 -12 11 -9 14 3 3 16 -6 30 -21 14 -16 16 -21 5 -13 -17 14 -18 13 -12 -8
l7 -22 -24 22 c-13 13 -29 32 -35 43 -9 18 -7 21 11 22 16 2 18 0 8 -7z m1607
-26 c-3 -14 -5 -12 -10 9 -3 19 -2 25 4 19 6 -6 8 -18 6 -28z m-1463 6 c3 -5
2 -10 -4 -10 -5 0 -13 5 -16 10 -3 6 -2 10 4 10 5 0 13 -4 16 -10z m1442 -22
c-3 -7 -5 -2 -5 12 0 14 2 19 5 13 2 -7 2 -19 0 -25z m-1402 -16 c-3 -3 -11 0
-18 7 -9 10 -8 11 6 5 10 -3 15 -9 12 -12z m-289 -14 c-3 -13 -3 -17 0 -10 3
6 14 12 25 12 24 0 22 -44 -4 -67 -17 -16 -17 -16 -11 2 5 12 4 16 -3 12 -6
-4 -17 1 -24 10 -12 15 -12 16 1 8 8 -5 24 -11 35 -12 16 -3 17 -1 5 7 -13 9
-13 11 0 20 9 6 10 10 3 10 -6 0 -14 -4 -17 -9 -4 -5 -16 -4 -30 2 l-24 11 22
12 c11 7 22 12 24 13 2 1 1 -9 -2 -21z m350 1 c19 -22 19 -22 -3 -10 -27 14
-32 -3 -5 -19 9 -6 11 -10 3 -8 -8 2 -21 15 -30 28 -10 14 -11 21 -3 16 6 -4
12 -2 12 3 0 16 4 14 26 -10z m-116 -29 c14 -10 22 -21 19 -25 -9 -8 -40 6
-34 15 3 5 -3 13 -12 19 -10 6 -13 10 -8 10 6 1 21 -8 35 -19z m-79 -7 c13
-16 12 -17 -3 -4 -17 13 -22 21 -14 21 2 0 10 -8 17 -17z m169 -13 c0 -5 -5
-10 -11 -10 -5 0 -7 5 -4 10 3 6 8 10 11 10 2 0 4 -4 4 -10z m1425 0 c3 -6 -1
-7 -9 -4 -18 7 -21 14 -7 14 6 0 13 -4 16 -10z m-5 -35 c0 -8 -2 -15 -4 -15
-2 0 -6 7 -10 15 -3 8 -1 15 4 15 6 0 10 -7 10 -15z m37 -77 c-3 -8 -6 -5 -6
6 -1 11 2 17 5 13 3 -3 4 -12 1 -19z m-20 -20 c-3 -7 -5 -2 -5 12 0 14 2 19 5
13 2 -7 2 -19 0 -25z m33 -18 c0 -5 -4 -10 -10 -10 -5 0 -10 5 -10 10 0 6 5
10 10 10 6 0 10 -4 10 -10z m-1560 -30 c-12 -8 -8 -10 14 -8 21 2 29 -2 31
-15 2 -9 0 -15 -4 -12 -5 2 -20 9 -35 15 -26 10 -28 30 -3 30 7 0 6 -4 -3 -10z
m33 -47 c3 -5 -6 -9 -20 -10 -19 -1 -22 1 -12 8 17 11 26 11 32 2z m1562 -13
c3 -6 -1 -7 -9 -4 -18 7 -21 14 -7 14 6 0 13 -4 16 -10z m-1465 -28 c0 -8 -5
-10 -12 -6 -10 6 -10 4 0 -7 23 -25 12 -30 -18 -9 -16 12 -30 25 -30 29 0 4
14 7 30 6 18 0 30 -5 30 -13z m1460 -7 c0 -8 -2 -15 -4 -15 -2 0 -6 7 -10 15
-3 8 -1 15 4 15 6 0 10 -7 10 -15z m37 -77 c-3 -8 -6 -5 -6 6 -1 11 2 17 5 13
3 -3 4 -12 1 -19z m-20 -20 c-3 -7 -5 -2 -5 12 0 14 2 19 5 13 2 -7 2 -19 0
-25z m33 -18 c0 -5 -4 -10 -10 -10 -5 0 -10 5 -10 10 0 6 5 10 10 10 6 0 10
-4 10 -10z m-1173 -39 c10 -14 14 -14 35 4 l23 20 -18 -21 c-9 -11 -14 -24
-10 -29 5 -4 -2 -2 -14 4 -13 6 -23 9 -23 6 0 -3 -9 -1 -20 5 -11 6 -20 14
-20 19 0 14 35 8 47 -8z m136 4 c-1 -5 -10 -11 -20 -12 -15 -2 -15 -1 2 6 17
7 13 10 -20 14 l-40 4 40 -1 c22 0 39 -5 38 -11z m-63 -19 c0 -8 -4 -18 -10
-21 -6 -4 -7 1 -3 11 5 13 3 15 -7 9 -9 -5 -11 -4 -6 3 10 17 26 15 26 -2z"/>
<path d="M37393 11025 c0 -5 10 -10 22 -10 13 0 21 5 18 10 -2 6 -12 11 -22
11 -10 0 -18 -5 -18 -11z"/>
<path d="M37620 10973 c0 -7 6 -12 13 -10 6 1 11 -6 9 -15 -4 -24 10 -23 25 2
10 15 10 21 0 27 -20 12 -47 10 -47 -4z"/>
<path d="M37810 10942 c0 -5 7 -9 15 -9 8 0 12 4 9 9 -3 4 -9 8 -15 8 -5 0 -9
-4 -9 -8z"/>
<path d="M39369 10848 c-7 -23 -5 -37 4 -31 6 4 8 0 4 -10 -11 -28 12 -77 36
-77 12 0 18 4 12 8 -5 4 -11 22 -12 39 -2 37 -19 73 -33 73 -6 0 -10 -1 -11
-2z"/>
<path d="M38025 10773 c4 -10 10 -26 12 -35 3 -10 9 -18 14 -18 12 0 12 17 0
24 -5 3 -7 15 -4 26 4 14 0 20 -12 20 -12 0 -15 -5 -10 -17z"/>
<path d="M36355 10720 c-3 -5 -1 -10 4 -10 6 0 11 5 11 10 0 6 -2 10 -4 10 -3
0 -8 -4 -11 -10z"/>
<path d="M39397 10714 c7 -3 9 -12 7 -19 -3 -8 -2 -20 2 -27 10 -15 9 -10 19
-66 4 -23 11 -45 16 -48 4 -2 6 -11 3 -18 -8 -20 13 -29 33 -16 17 11 17 11 1
6 -10 -3 -18 -1 -18 4 0 6 6 10 13 10 9 0 8 3 -2 9 -11 7 -11 9 0 14 11 4 11
6 1 6 -7 1 -10 6 -6 12 4 7 -4 20 -17 31 -20 15 -21 17 -4 11 l20 -6 -20 23
c-11 13 -14 20 -7 16 7 -4 12 -1 12 8 0 9 -4 16 -9 16 -5 0 -7 10 -4 23 4 18
3 19 -6 7 -7 -10 -11 -11 -11 -2 0 6 -8 12 -17 11 -10 0 -13 -3 -6 -5z"/>
<path d="M25781 10694 c0 -11 3 -14 6 -6 3 7 2 16 -1 19 -3 4 -6 -2 -5 -13z"/>
<path d="M27126 10698 c3 -5 10 -6 15 -3 13 9 11 12 -6 12 -8 0 -12 -4 -9 -9z"/>
<path d="M39582 10637 c-6 -7 -9 -17 -5 -21 7 -7 6 -82 -3 -195 -5 -59 -4 -72
6 -66 10 6 12 4 7 -9 -4 -10 -7 -21 -7 -24 0 -4 -4 0 -10 8 -6 10 -9 6 -8 -18
1 -17 4 -30 7 -27 4 2 8 -6 8 -18 2 -15 0 -18 -6 -9 -10 16 -21 17 -30 4 -3
-6 -6 12 -6 38 -1 51 -11 73 -24 51 -6 -10 -10 -9 -14 4 -4 9 -3 14 3 10 15
-9 21 16 11 50 -5 19 -14 29 -24 29 -10 -1 -17 2 -17 7 0 5 7 9 15 9 17 0 18
6 5 35 -5 11 -9 15 -9 8 -1 -7 -9 -10 -18 -7 -10 3 -7 -2 7 -11 14 -9 17 -14
8 -11 -13 4 -18 0 -18 -15 0 -13 8 -23 22 -27 21 -5 21 -6 2 -13 -18 -7 -18
-8 4 -15 12 -3 22 -10 22 -15 0 -5 -7 -6 -17 -2 -13 5 -15 2 -9 -18 4 -13 15
-57 24 -97 10 -40 23 -77 31 -81 11 -7 11 -9 0 -14 -11 -3 -11 -7 -2 -17 6 -7
9 -19 6 -26 -3 -8 0 -14 6 -14 6 0 8 -7 5 -15 -4 -8 -1 -21 5 -29 6 -7 9 -15
6 -18 -9 -9 22 -113 34 -113 6 0 11 -4 10 -10 -1 -5 -6 -9 -12 -7 -7 2 -7 -1
0 -10 6 -7 9 -23 8 -35 -1 -12 3 -19 8 -16 5 3 6 -3 2 -16 -3 -11 -3 -26 2
-33 9 -15 13 -35 15 -66 0 -12 4 -25 9 -28 4 -2 5 -12 2 -21 -4 -10 -2 -14 5
-9 6 3 10 15 9 26 -1 10 -5 16 -11 13 -5 -4 -6 -1 -2 6 17 28 31 -21 14 -52
-7 -13 -7 -22 0 -29 6 -6 8 -17 5 -24 -3 -8 -1 -14 5 -14 5 0 8 -14 7 -30 -3
-34 5 -43 29 -34 12 4 13 11 6 24 -5 9 -6 20 -3 24 3 3 1 6 -5 6 -6 0 -9 7 -6
15 5 11 1 14 -12 9 -18 -5 -18 -5 -2 8 14 12 15 21 6 59 -6 24 -16 47 -21 50
-5 4 -8 13 -5 20 3 8 1 25 -5 39 -5 14 -11 36 -12 50 -1 14 -4 26 -5 28 -1 1
-4 7 -5 12 -1 6 -4 12 -5 15 -1 3 -4 10 -5 15 -1 6 -4 13 -5 18 -1 4 -2 11 -1
15 1 5 -3 6 -8 3 -13 -8 -26 33 -14 45 15 15 3 79 -16 79 -14 0 -14 2 -1 10
13 9 13 11 0 20 -8 5 -10 10 -5 10 6 0 3 5 -5 10 -12 8 -12 10 -1 10 9 0 11 7
8 22 -3 12 -2 30 4 40 5 10 11 37 13 61 2 23 5 44 6 47 2 3 3 21 4 40 1 19 5
45 10 57 6 19 4 22 -11 17 -16 -5 -16 -4 -2 5 13 8 17 28 18 81 1 45 -3 69 -9
65 -6 -3 -10 -1 -10 4 0 6 5 11 10 11 14 0 13 13 -3 34 -11 15 -15 16 -25 3z
m5 -259 c-3 -8 -6 -5 -6 6 -1 11 2 17 5 13 3 -3 4 -12 1 -19z m-64 -63 c-3 -9
-8 -14 -10 -11 -3 3 -2 9 2 15 9 16 15 13 8 -4z m37 -108 c11 -5 9 -6 -4 -4
-11 1 -21 9 -23 17 -3 10 -2 11 4 4 4 -6 15 -14 23 -17z m7 -43 c-3 -3 -12 -4
-19 -1 -8 3 -5 6 6 6 11 1 17 -2 13 -5z m23 -135 c0 -6 -4 -7 -10 -4 -5 3 -10
11 -10 16 0 6 5 7 10 4 6 -3 10 -11 10 -16z m35 -118 c3 -5 2 -12 -3 -15 -5
-3 -9 1 -9 9 0 17 3 19 12 6z m18 -96 c4 -8 1 -17 -6 -21 -7 -4 -9 -4 -5 1 4
4 3 14 -3 22 -7 8 -8 13 -1 13 5 0 12 -7 15 -15z m10 -40 c-3 -9 -8 -14 -10
-11 -3 3 -2 9 2 15 9 16 15 13 8 -4z m32 -105 c3 -5 1 -10 -4 -10 -6 0 -11 5
-11 10 0 6 2 10 4 10 3 0 8 -4 11 -10z m15 -89 c0 -6 -4 -12 -8 -15 -5 -3 -9
1 -9 9 0 8 4 15 9 15 4 0 8 -4 8 -9z"/>
<path d="M13390 9345 l0 -1165 249 0 249 0 6 173 c3 94 13 408 21 697 21 731
47 1328 61 1423 l6 37 -296 0 -296 0 0 -1165z"/>
<path d="M16920 10278 c0 -339 -17 -1011 -40 -1575 -11 -271 -20 -499 -20
-507 0 -14 36 -16 305 -16 l305 0 0 1165 0 1165 -275 0 -275 0 0 -232z"/>
<path d="M15461 10408 c-2 -25 -75 -562 -146 -1078 -93 -666 -125 -939 -125
-1051 l0 -99 215 0 215 0 -5 53 c-10 96 -34 520 -45 777 -5 140 -14 370 -20
510 -10 252 -29 468 -51 596 -6 36 -17 121 -24 187 -7 67 -13 115 -14 105z"/>
<path d="M45600 10065 l0 -275 682 2 683 3 1 38 2 38 -42 -1 c-22 -1 -312 -1
-643 -1 l-603 1 0 190 0 190 598 1 c660 0 668 0 685 19 10 10 9 11 -3 5 -12
-7 -13 -6 -3 6 6 8 11 24 9 34 -3 19 -12 20 -134 23 -73 1 -132 -1 -132 -6 0
-10 -26 -8 -51 2 -27 12 -94 3 -91 -11 1 -7 -3 -13 -8 -13 -5 0 -10 7 -10 15
0 8 -7 15 -15 15 -10 0 -12 -6 -8 -17 7 -17 6 -17 -20 0 -23 15 -54 17 -261
17 -178 0 -236 -3 -239 -12 -4 -10 -6 -10 -6 0 -1 6 -12 12 -25 12 -13 0 -27
-6 -30 -12 -5 -10 -7 -10 -12 0 -3 7 -24 12 -49 12 -25 0 -45 -5 -48 -12 -4
-10 -6 -10 -6 0 -2 21 -37 13 -50 -10 l-12 -23 5 23 c4 21 2 22 -80 22 l-84 0
0 -275z m1120 250 c0 -9 -9 -15 -22 -14 -17 1 -19 2 -5 6 9 2 17 9 17 14 0 5
2 9 5 9 3 0 5 -7 5 -15z m-910 -28 c0 -5 -4 -5 -10 -2 -5 3 -10 14 -10 23 0
15 2 15 10 2 5 -8 10 -19 10 -23z m750 9 c0 -2 -7 -6 -15 -10 -8 -3 -15 -1
-15 4 0 6 7 10 15 10 8 0 15 -2 15 -4z m365 -446 c-30 -13 -1245 -12 -1245 0
0 7 206 10 633 9 347 0 623 -5 612 -9z m2 -36 c-3 -3 -12 -4 -19 -1 -8 3 -5 6
6 6 11 1 17 -2 13 -5z"/>
<path d="M27720 10265 c0 -7 30 -13 34 -7 3 4 -4 9 -15 9 -10 1 -19 0 -19 -2z"/>
<path d="M27706 10222 c-3 -4 4 -9 15 -9 23 -2 25 3 4 10 -8 4 -16 3 -19 -1z"/>
<path d="M26895 10170 c6 -29 11 -34 18 -16 3 8 0 20 -8 26 -12 10 -13 8 -10
-10z"/>
<path d="M36510 10175 c0 -17 9 -19 28 -6 11 7 10 10 -3 15 -23 9 -25 8 -25
-9z"/>
<path d="M27016 10165 c-11 -8 -16 -15 -10 -15 5 0 18 7 28 15 11 8 16 15 10
15 -5 0 -18 -7 -28 -15z"/>
<path d="M26786 10142 c-2 -4 4 -8 14 -8 10 0 16 4 14 8 -3 4 -9 8 -14 8 -5 0
-11 -4 -14 -8z"/>
<path d="M27298 10074 c15 -10 21 -22 17 -33 -5 -13 -4 -13 6 -4 10 10 9 17
-6 33 -10 11 -23 20 -29 20 -6 0 0 -7 12 -16z"/>
<path d="M39603 9995 c0 -8 4 -12 9 -9 4 3 8 9 8 15 0 5 -4 9 -8 9 -5 0 -9 -7
-9 -15z"/>
<path d="M36906 9938 c3 -5 10 -6 15 -3 13 9 11 12 -6 12 -8 0 -12 -4 -9 -9z"/>
<path d="M28676 9854 c-8 -22 -8 -26 4 -19 6 3 10 2 10 -4 0 -5 -5 -11 -12
-13 -7 -3 -8 -10 -4 -17 7 -10 10 -11 16 -1 6 9 52 12 176 11 99 -1 175 3 184
9 10 6 11 10 3 10 -7 0 -12 3 -12 8 5 30 -3 32 -160 32 -96 0 -162 -4 -166
-10 -3 -5 -11 -10 -16 -10 -6 0 -7 5 -4 10 3 6 2 10 -3 10 -6 0 -13 -7 -16
-16z"/>
<path d="M29053 9855 c5 -14 29 -13 34 2 3 7 -4 11 -16 10 -12 -1 -20 -6 -18
-12z"/>
<path d="M28704 9798 c-2 -3 75 -7 171 -8 96 0 175 3 175 7 0 10 -340 11 -346
1z"/>
<path d="M39697 9543 c-13 -3 -16 -10 -11 -26 11 -36 23 -42 32 -16 6 14 6 25
1 27 -5 2 -7 8 -3 13 3 5 4 8 2 8 -2 -1 -11 -3 -21 -6z"/>
<path d="M39690 9470 c0 -4 10 -15 23 -24 13 -9 15 -13 5 -10 -14 5 -16 1 -12
-23 3 -15 9 -29 13 -31 4 -1 6 -18 5 -38 -2 -19 1 -32 5 -29 11 6 23 -23 15
-36 -10 -16 -12 -59 -3 -65 4 -2 6 -20 4 -39 -4 -27 0 -37 14 -45 28 -14 30
-13 25 18 -2 15 -6 39 -8 55 -2 15 -9 33 -15 41 -7 9 -8 17 -2 20 8 5 8 27 1
46 -1 3 -2 8 -2 12 1 3 -5 12 -13 18 -8 7 -15 17 -15 22 0 6 8 4 17 -3 14 -12
16 -12 8 0 -4 8 -9 28 -11 45 -5 59 -11 71 -32 72 -12 1 -22 -2 -22 -6z m47
-59 c-1 -16 -4 -17 -15 -9 -10 9 -11 13 0 19 17 11 17 12 15 -10z m28 -191 c3
-5 1 -10 -4 -10 -6 0 -11 5 -11 10 0 6 2 10 4 10 3 0 8 -4 11 -10z m2 -35 c0
-8 -4 -15 -9 -15 -10 0 -11 14 -1 23 9 10 10 9 10 -8z m13 -31 c0 -8 -19 -13
-24 -6 -3 5 1 9 9 9 8 0 15 -2 15 -3z"/>
<path d="M39725 9290 c3 -5 8 -10 11 -10 2 0 4 5 4 10 0 6 -5 10 -11 10 -5 0
-7 -4 -4 -10z"/>
<path d="M39755 9110 c-4 -6 -2 -17 4 -24 7 -9 7 -16 -1 -24 -7 -7 -8 -12 -2
-12 6 0 9 -21 7 -52 -2 -37 2 -57 14 -70 13 -14 17 -42 18 -131 1 -61 0 -78
-2 -37 -6 114 -24 114 -21 0 2 -78 6 -94 18 -92 8 2 11 0 7 -5 -5 -4 -14 -8
-20 -8 -7 0 -12 -13 -12 -30 0 -22 4 -30 18 -29 9 1 17 -2 17 -7 0 -5 -8 -9
-17 -9 -12 0 -18 -9 -20 -26 l-1 -27 23 29 c22 28 23 34 20 219 -2 217 -1 205
-16 205 -8 0 -8 -4 0 -14 8 -10 9 -16 1 -21 -5 -3 -11 -4 -11 -1 -5 24 -4 34
7 51 6 12 10 40 8 64 -4 43 -14 71 -14 37 0 -9 -4 -15 -10 -11 -5 3 -7 12 -3
20 6 17 -3 20 -12 5z m35 -84 c0 -3 -4 -8 -10 -11 -5 -3 -10 -1 -10 4 0 6 5
11 10 11 6 0 10 -2 10 -4z m0 -401 c-5 -6 -7 -15 -3 -18 3 -4 2 -7 -4 -7 -6 0
-10 11 -10 24 0 17 4 23 14 19 9 -4 10 -9 3 -18z"/>
<path d="M39765 8895 c0 -14 6 -25 13 -25 6 0 12 4 12 8 0 5 -6 16 -12 25 -12
16 -13 15 -13 -8z"/>
<path d="M39785 8530 c-4 -11 -10 -18 -15 -15 -13 8 -22 -27 -9 -39 9 -8 10
-6 5 8 -5 16 -4 17 8 7 12 -10 13 -16 3 -26 -7 -7 -16 -10 -22 -7 -5 3 -7 2
-3 -3 4 -4 3 -14 -3 -22 -9 -10 -8 -17 2 -30 12 -14 12 -16 0 -9 -9 6 -12 4
-9 -5 3 -8 13 -16 23 -17 11 -3 15 0 10 7 -4 7 -1 18 5 26 17 21 3 39 -18 24
-10 -7 -5 0 11 15 30 30 32 37 15 54 -7 7 -8 12 -2 12 5 0 10 9 11 20 2 26 -4
26 -12 0z"/>
<path d="M39730 8360 c0 -5 6 -10 13 -10 8 0 7 -4 -3 -10 -11 -7 -12 -10 -2
-10 10 0 10 -4 -2 -16 -21 -21 -20 -29 6 -54 24 -23 42 -26 36 -7 -3 6 -10 12
-16 12 -6 0 -17 7 -24 15 -11 12 -11 12 3 2 9 -6 18 -10 21 -7 3 3 11 -2 18
-10 9 -11 10 -19 2 -27 -11 -11 -5 -38 9 -38 4 0 6 6 3 14 -3 8 -1 17 4 20 10
6 8 -27 -3 -59 l-8 -20 17 20 c17 20 17 20 6 -2 -6 -13 -15 -23 -21 -23 -5 0
-9 -6 -7 -12 3 -19 -37 -79 -47 -70 -5 4 -5 1 -1 -5 4 -8 1 -13 -8 -13 -9 0
-16 -5 -16 -11 0 -5 -4 -8 -9 -5 -5 4 -24 -6 -41 -20 -24 -20 -28 -29 -18 -35
9 -6 6 -9 -11 -9 -16 0 -21 4 -18 14 4 10 1 13 -9 9 -9 -3 -14 -13 -11 -24 3
-11 1 -17 -3 -14 -5 3 -11 1 -15 -5 -3 -5 1 -10 9 -10 8 0 18 5 21 10 3 6 14
10 23 10 9 1 27 9 40 19 22 19 31 38 12 26 -5 -3 -10 -2 -10 3 0 6 7 12 15 16
10 4 15 -1 16 -17 1 -22 1 -22 7 1 4 13 11 23 16 22 5 -1 13 4 18 12 8 10 9
10 5 -2 -2 -8 -10 -14 -16 -12 -6 1 -11 -2 -11 -8 0 -5 4 -10 9 -10 13 0 41
41 35 52 -3 4 2 5 10 2 10 -4 16 -1 16 9 0 8 6 18 13 20 10 4 10 6 0 6 -7 1
-13 5 -13 11 0 5 7 6 17 3 10 -4 14 -2 10 4 -4 6 -1 14 5 17 7 3 2 3 -12 0
-24 -5 -24 -4 -4 8 20 12 23 31 12 80 -2 10 -17 31 -32 47 -33 35 -32 31 -18
58 10 19 9 24 -7 33 -25 13 -31 13 -31 0z m-60 -364 c0 -3 -4 -8 -10 -11 -5
-3 -10 -1 -10 4 0 6 5 11 10 11 6 0 10 -2 10 -4z"/>
<path d="M39594 8236 c-28 -14 -64 -26 -80 -29 -60 -10 -84 -20 -84 -33 0 -8
-2 -14 -4 -14 -2 0 -13 -3 -23 -6 -17 -5 -17 -5 0 6 9 6 17 16 17 22 0 7 -5 6
-15 -2 -8 -7 -15 -9 -15 -4 0 4 -6 -1 -14 -12 -8 -10 -18 -16 -22 -11 -4 4 -2
7 4 7 7 0 12 5 12 10 0 7 -6 7 -19 1 -10 -6 -35 -8 -54 -6 -29 4 -37 1 -42
-15 -8 -26 -22 -25 -30 1 -6 19 -13 21 -51 16 -24 -2 -47 -1 -50 4 -11 18 -25
8 -19 -12 6 -19 5 -20 -8 -8 -8 8 -13 17 -11 21 2 3 -5 4 -16 1 -11 -3 -20 0
-20 6 0 6 -3 10 -7 9 -5 -1 -32 4 -61 10 -30 7 -58 9 -64 6 -11 -7 -8 -90 5
-121 6 -12 14 -20 18 -17 17 10 9 -9 -8 -22 -15 -11 -16 -15 -4 -26 12 -11 13
-10 7 7 -6 16 -5 17 5 8 10 -10 9 -16 -1 -28 -11 -13 -7 -21 30 -56 23 -22 48
-38 56 -35 7 3 16 1 19 -5 4 -5 21 -9 40 -7 24 1 32 6 28 17 -4 13 -1 12 10
-1 16 -20 37 -24 37 -7 0 5 -4 8 -9 5 -5 -3 -15 1 -22 10 -12 14 -14 14 -26
-2 -11 -15 -15 -16 -26 -4 -10 10 -9 11 3 5 13 -8 13 -6 1 8 -14 18 -36 13
-25 -5 4 -7 2 -8 -5 -4 -6 4 -8 12 -5 18 4 6 1 8 -7 6 -8 -3 -13 -10 -12 -16
2 -6 -4 -9 -11 -6 -8 3 -13 15 -11 26 3 15 0 18 -13 13 -9 -3 -13 -3 -10 1 4
4 2 16 -4 28 -7 11 -11 24 -10 29 1 4 -2 7 -7 7 -9 0 -5 116 5 132 3 5 11 5
19 -2 7 -6 33 -12 58 -14 25 -2 50 -7 57 -11 7 -4 16 -1 21 6 5 9 9 10 9 2 0
-7 16 -10 43 -9 23 1 48 -2 55 -7 7 -6 17 -6 25 0 6 5 36 8 65 8 29 -1 55 2
58 6 2 5 11 6 19 3 17 -7 57 14 50 26 -4 6 4 6 20 0 19 -7 35 -6 63 6 20 9 46
18 57 19 26 4 75 23 75 30 0 6 -28 1 -53 -10 -10 -4 -21 -5 -24 -1 -4 3 1 6
10 6 10 0 17 5 17 11 0 6 7 9 15 5 8 -3 15 -1 15 5 0 6 5 7 12 3 7 -4 8 -3 4
4 -4 7 -8 12 -9 12 -1 -1 -25 -11 -53 -24z m-59 -46 c-3 -5 -12 -10 -18 -10
-7 0 -6 4 3 10 19 12 23 12 15 0z m-531 -16 c5 -14 4 -15 -9 -4 -17 14 -19 20
-6 20 5 0 12 -7 15 -16z m63 -20 c-6 -6 -47 9 -47 17 0 5 11 3 25 -3 14 -6 24
-13 22 -14z m110 0 c-3 -3 -12 -4 -19 -1 -8 3 -5 6 6 6 11 1 17 -2 13 -5z"/>
<path d="M39230 8160 c0 -5 5 -10 10 -10 6 0 10 5 10 10 0 6 -4 10 -10 10 -5
0 -10 -4 -10 -10z"/>
<path d="M39546 7958 c-10 -15 -14 -17 -10 -5 7 18 -20 25 -31 7 -3 -5 -29 -7
-58 -5 -30 2 -44 0 -33 -4 14 -5 16 -10 8 -15 -7 -4 -16 -4 -22 -1 -5 3 -19 1
-31 -5 -16 -9 -24 -8 -37 3 -10 8 -38 15 -65 16 -45 0 -48 -1 -41 -22 6 -19 5
-20 -9 -9 -19 16 -77 25 -77 12 0 -6 3 -9 8 -9 18 3 33 -2 28 -9 -3 -5 18 -7
47 -5 29 2 86 5 127 7 41 2 75 4 75 5 0 2 23 4 50 5 28 2 57 4 66 5 9 0 21 12
27 26 14 31 0 33 -22 3z m-266 -32 c-4 -4 -16 -4 -26 2 -16 9 -14 10 8 9 15
-1 23 -6 18 -11z m207 8 c-3 -3 -12 -4 -19 -1 -8 3 -5 6 6 6 11 1 17 -2 13 -5z"/>
<path d="M39358 7953 c-10 -2 -18 -9 -18 -14 0 -13 13 -11 36 6 19 14 14 17
-18 8z"/>
<path d="M5366 6905 c-11 -8 -15 -15 -9 -15 6 0 16 7 23 15 16 19 11 19 -14 0z"/>
<path d="M49300 6891 c0 -6 4 -13 10 -16 6 -3 7 1 4 9 -7 18 -14 21 -14 7z"/>
<path d="M5209 6888 c-7 -23 -4 -35 7 -35 9 0 11 4 4 12 -5 7 -7 15 -3 18 3 4
3 7 0 7 -4 0 -7 -1 -8 -2z"/>
<path d="M49365 6883 c3 -3 0 -11 -5 -18 -7 -8 -5 -12 4 -12 14 0 16 22 3 32
-4 3 -5 2 -2 -2z"/>
<path d="M4940 6866 c0 -2 7 -7 16 -10 8 -3 12 -2 9 4 -6 10 -25 14 -25 6z"/>
<path d="M49427 6859 c7 -7 15 -10 18 -7 3 3 -2 9 -12 12 -14 6 -15 5 -6 -5z"/>
<path d="M49850 6797 c0 -2 6 -10 14 -16 11 -9 16 -9 22 1 4 7 4 10 -1 6 -4
-4 -14 -3 -22 3 -7 6 -13 9 -13 6z"/>
<path d="M49964 6784 c-18 -14 -18 -15 4 -4 12 6 22 13 22 15 0 8 -5 6 -26
-11z"/>
<path d="M4440 6780 c-9 -6 -10 -10 -3 -10 6 0 15 5 18 10 8 12 4 12 -15 0z"/>
<path d="M4605 6769 c-3 -4 2 -6 10 -5 21 3 28 13 10 13 -9 0 -18 -4 -20 -8z"/>
<path d="M50096 6768 c3 -5 10 -6 15 -3 13 9 11 12 -6 12 -8 0 -12 -4 -9 -9z"/>
<path d="M4256 6742 c-3 -5 1 -9 9 -9 8 0 12 4 9 9 -3 4 -7 8 -9 8 -2 0 -6 -4
-9 -8z"/>
<path d="M4290 6743 c0 -6 8 -17 18 -24 16 -13 16 -13 2 6 -8 11 -16 22 -17
24 -2 2 -3 0 -3 -6z"/>
<path d="M16873 6737 c0 -7 9 -14 20 -14 11 -1 18 -1 16 0 -2 2 -11 8 -20 15
-12 9 -16 9 -16 -1z"/>
<path d="M32419 6733 c-13 -16 -12 -17 4 -4 9 7 17 15 17 17 0 8 -8 3 -21 -13z"/>
<path d="M48916 6738 c3 -5 10 -6 15 -3 13 9 11 12 -6 12 -8 0 -12 -4 -9 -9z"/>
<path d="M50200 6745 c0 -2 6 -8 13 -14 10 -8 14 -7 14 2 0 8 -6 14 -14 14 -7
0 -13 -1 -13 -2z"/>
<path d="M5470 6737 c0 -2 6 -10 14 -16 11 -9 16 -9 22 1 4 7 4 10 -1 6 -4 -4
-14 -3 -22 3 -7 6 -13 9 -13 6z"/>
<path d="M50275 6731 c-3 -5 -2 -12 3 -15 5 -3 9 1 9 9 0 17 -3 19 -12 6z"/>
<path d="M32936 6722 c-3 -5 1 -9 9 -9 8 0 12 4 9 9 -3 4 -7 8 -9 8 -2 0 -6
-4 -9 -8z"/>
<path d="M14123 6705 c0 -8 4 -12 9 -9 5 3 6 10 3 15 -9 13 -12 11 -12 -6z"/>
<path d="M14785 6709 c-4 -6 -14 -8 -24 -4 -13 5 -14 4 -3 -6 10 -11 15 -10
29 4 10 9 14 17 11 17 -4 0 -10 -5 -13 -11z"/>
<path d="M32416 6693 c-6 -14 -5 -15 5 -6 7 7 10 15 7 18 -3 3 -9 -2 -12 -12z"/>
<path d="M4106 6692 c-3 -5 1 -9 9 -9 8 0 12 4 9 9 -3 4 -7 8 -9 8 -2 0 -6 -4
-9 -8z"/>
<path d="M50424 6653 c-1 -13 1 -21 5 -16 3 4 10 10 14 14 4 3 2 11 -5 17 -10
8 -13 5 -14 -15z"/>
<path d="M4056 6661 c-3 -5 0 -14 7 -19 10 -8 13 -6 14 9 2 19 -11 26 -21 10z"/>
<path d="M50456 6637 c-16 -12 -16 -13 2 -13 10 0 19 6 19 13 0 7 -1 13 -2 13
-1 0 -9 -6 -19 -13z"/>
<path d="M39703 6623 c0 -9 4 -10 14 -2 7 6 13 12 13 14 0 1 -6 2 -13 2 -8 0
-14 -6 -14 -14z"/>
<path d="M4006 6612 c-3 -5 1 -9 9 -9 8 0 12 4 9 9 -3 4 -7 8 -9 8 -2 0 -6 -4
-9 -8z"/>
<path d="M14781 6586 c-8 -10 -9 -16 -1 -21 5 -3 10 -5 11 -3 4 18 7 38 4 38
-1 0 -8 -6 -14 -14z"/>
<path d="M50505 6571 c-3 -5 -2 -12 3 -15 5 -3 9 1 9 9 0 17 -3 19 -12 6z"/>
<path d="M3970 6565 c0 -2 6 -8 13 -14 10 -8 14 -7 14 2 0 8 -6 14 -14 14 -7
0 -13 -1 -13 -2z"/>
<path d="M14087 6549 c7 -9 9 -19 5 -24 -4 -4 3 -2 16 4 12 6 22 14 22 17 0 3
-5 2 -10 -1 -6 -4 -19 -1 -28 7 -15 11 -15 11 -5 -3z"/>
<path d="M16949 6558 c-5 -18 -6 -38 -1 -34 7 8 12 36 6 36 -2 0 -4 -1 -5 -2z"/>
<path d="M4033 6495 c0 -8 4 -12 9 -9 5 3 6 10 3 15 -9 13 -12 11 -12 -6z"/>
<path d="M50480 6500 c-9 -6 -10 -10 -3 -10 6 0 15 5 18 10 8 12 4 12 -15 0z"/>
<path d="M4095 6489 c-4 -6 -4 -13 -1 -16 3 -4 6 -1 6 6 0 7 5 9 12 5 7 -4 8
-3 4 4 -9 15 -13 15 -21 1z"/>
<path d="M4132 6494 c4 -4 3 -14 -2 -24 -6 -12 -5 -17 5 -17 8 0 11 5 8 10 -3
5 0 13 7 17 8 5 7 9 -6 14 -10 4 -15 4 -12 0z"/>
<path d="M4065 6481 c-3 -5 -2 -12 3 -15 5 -3 9 1 9 9 0 17 -3 19 -12 6z"/>
<path d="M50416 6477 c3 -10 9 -15 12 -12 3 3 0 11 -7 18 -10 9 -11 8 -5 -6z"/>
<path d="M50379 6453 c-13 -16 -12 -17 4 -4 16 13 21 21 13 21 -2 0 -10 -8
-17 -17z"/>
<path d="M4336 6422 c-3 -5 4 -18 17 -28 21 -19 21 -19 7 0 -8 11 -13 21 -12
23 2 3 1 7 -1 9 -3 3 -8 1 -11 -4z"/>
<path d="M4375 6419 c-4 -6 -4 -13 -1 -16 3 -4 6 -1 6 6 0 7 5 9 12 5 7 -4 8
-3 4 4 -9 15 -13 15 -21 1z"/>
<path d="M50243 6415 c0 -8 4 -12 9 -9 5 3 6 10 3 15 -9 13 -12 11 -12 -6z"/>
<path d="M4400 6386 c0 -2 8 -10 18 -17 15 -13 16 -12 3 4 -13 16 -21 21 -21
13z"/>
<path d="M4701 6346 c-8 -9 -7 -13 4 -13 8 0 11 5 8 10 -4 6 0 8 10 4 9 -3 18
-3 21 1 8 13 -32 11 -43 -2z"/>
<path d="M49699 6343 c-13 -16 -12 -17 4 -4 16 13 21 21 13 21 -2 0 -10 -8
-17 -17z"/>
<path d="M49776 6351 c-3 -5 2 -15 12 -22 15 -12 16 -12 5 2 -7 9 -10 19 -6
22 3 4 4 7 0 7 -3 0 -8 -4 -11 -9z"/>
<path d="M4924 6339 c-3 -6 -2 -15 3 -20 5 -5 9 -1 9 11 0 23 -2 24 -12 9z"/>
<path d="M4646 6328 c3 -5 10 -6 15 -3 13 9 11 12 -6 12 -8 0 -12 -4 -9 -9z"/>
<path d="M49709 6323 c-13 -16 -12 -17 4 -4 9 7 17 15 17 17 0 8 -8 3 -21 -13z"/>
<path d="M49619 6313 c-13 -16 -12 -17 4 -4 16 13 21 21 13 21 -2 0 -10 -8
-17 -17z"/>
<path d="M49731 6316 c-10 -11 -9 -14 1 -12 14 2 23 15 15 22 -2 2 -10 -2 -16
-10z"/>
<path d="M4836 6298 c3 -5 10 -6 15 -3 13 9 11 12 -6 12 -8 0 -12 -4 -9 -9z"/>
<path d="M49656 6298 c3 -4 11 -5 19 -1 21 7 19 12 -4 10 -11 0 -18 -5 -15 -9z"/>
<path d="M5626 6272 c-3 -4 4 -9 15 -9 23 -2 25 3 4 10 -8 4 -16 3 -19 -1z"/>
<path d="M49230 6261 c0 -6 4 -13 10 -16 6 -3 7 1 4 9 -7 18 -14 21 -14 7z"/>
<path d="M5421 6253 c-1 -17 16 -25 25 -12 4 7 3 9 -4 5 -5 -3 -13 0 -15 6 -4
9 -6 10 -6 1z"/>
<path d="M5610 6241 c5 -11 15 -23 21 -27 6 -3 3 5 -6 20 -20 30 -30 35 -15 7z"/>
<path d="M48883 6244 c0 -9 4 -11 12 -4 7 5 14 9 16 7 2 -1 3 0 1 2 -7 11 -29
7 -29 -5z"/>
<path d="M48806 6238 c3 -5 10 -6 15 -3 13 9 11 12 -6 12 -8 0 -12 -4 -9 -9z"/>
<path d="M5693 6227 c0 -8 6 -14 14 -14 9 0 10 4 2 14 -6 7 -12 13 -14 13 -1
0 -2 -6 -2 -13z"/>
<path d="M6036 6192 c-3 -5 1 -9 9 -9 8 0 12 4 9 9 -3 4 -7 8 -9 8 -2 0 -6 -4
-9 -8z"/>
<path d="M48120 6196 c0 -3 9 -10 20 -16 11 -6 20 -8 20 -6 0 3 -9 10 -20 16
-11 6 -20 8 -20 6z"/>
<path d="M48256 6192 c-3 -5 1 -9 9 -9 8 0 12 4 9 9 -3 4 -7 8 -9 8 -2 0 -6
-4 -9 -8z"/>
<path d="M6126 6182 c-3 -5 1 -9 9 -9 8 0 12 4 9 9 -3 4 -7 8 -9 8 -2 0 -6 -4
-9 -8z"/>
<path d="M6686 6172 c-3 -5 1 -9 9 -9 8 0 12 4 9 9 -3 4 -7 8 -9 8 -2 0 -6 -4
-9 -8z"/>
<path d="M6576 6161 c18 -19 52 -21 66 -3 12 16 11 16 -6 2 -11 -8 -22 -13
-25 -12 -30 18 -45 23 -35 13z"/>
<path d="M6725 6160 c-4 -6 -4 -14 -1 -17 3 -4 6 0 6 7 0 10 5 9 18 -3 16 -15
19 -15 19 -2 0 8 -3 13 -5 10 -3 -3 -11 0 -18 6 -8 7 -14 7 -19 -1z"/>
<path d="M6936 6158 c3 -5 10 -6 15 -3 13 9 11 12 -6 12 -8 0 -12 -4 -9 -9z"/>
<path d="M48010 6166 c0 -2 7 -7 16 -10 8 -3 12 -2 9 4 -6 10 -25 14 -25 6z"/>
<path d="M48086 6162 c-3 -5 1 -9 9 -9 8 0 12 4 9 9 -3 4 -7 8 -9 8 -2 0 -6
-4 -9 -8z"/>
<path d="M47556 6138 c3 -5 10 -6 15 -3 13 9 11 12 -6 12 -8 0 -12 -4 -9 -9z"/>
<path d="M8093 6095 c0 -8 4 -12 9 -9 4 3 8 9 8 15 0 5 -4 9 -8 9 -5 0 -9 -7
-9 -15z"/>
<path d="M8539 6102 c11 -8 10 -12 -5 -20 -18 -10 -18 -11 2 -9 24 1 26 29 3
35 -12 3 -12 2 0 -6z"/>
<path d="M45763 6084 c0 -9 4 -11 12 -4 7 5 14 9 16 7 2 -1 3 0 1 2 -7 11 -29
7 -29 -5z"/>
<path d="M46520 6090 c-9 -6 -10 -10 -3 -10 6 0 15 5 18 10 8 12 4 12 -15 0z"/>
<path d="M45950 6080 c-8 -5 -10 -10 -5 -10 6 0 17 5 25 10 8 5 11 10 5 10 -5
0 -17 -5 -25 -10z"/>
<path d="M45659 6063 c-13 -16 -12 -17 4 -4 16 13 21 21 13 21 -2 0 -10 -8
-17 -17z"/>
<path d="M45476 6058 c3 -5 10 -6 15 -3 13 9 11 12 -6 12 -8 0 -12 -4 -9 -9z"/>
<path d="M12538 6023 c6 -2 9 -10 6 -15 -4 -7 -2 -8 5 -4 13 9 5 26 -12 25 -9
0 -8 -2 1 -6z"/>
<path d="M12183 6000 c-1 -11 2 -20 7 -20 4 0 7 7 6 15 -3 23 -12 26 -13 5z"/>
<path d="M42647 6005 c-4 -8 -3 -16 1 -19 4 -3 9 4 9 15 2 23 -3 25 -10 4z"/>
<path d="M41155 6001 c-3 -5 0 -13 6 -17 7 -4 9 -3 5 4 -3 5 0 13 6 15 9 4 10
6 1 6 -6 1 -14 -3 -18 -8z"/>
<path d="M41950 6000 c-9 -6 -10 -10 -3 -10 6 0 15 5 18 10 8 12 4 12 -15 0z"/>
<path d="M42970 6006 c0 -2 7 -7 16 -10 8 -3 12 -2 9 4 -6 10 -25 14 -25 6z"/>
<path d="M16436 5952 c-3 -5 1 -9 9 -9 8 0 12 4 9 9 -3 4 -7 8 -9 8 -2 0 -6
-4 -9 -8z"/>
<path d="M20846 5952 c-3 -5 1 -9 9 -9 8 0 12 4 9 9 -3 4 -7 8 -9 8 -2 0 -6
-4 -9 -8z"/>
<path d="M17416 5942 c-3 -5 1 -9 9 -9 8 0 12 4 9 9 -3 4 -7 8 -9 8 -2 0 -6
-4 -9 -8z"/>
</g>
</svg>
